<?xml version="1.0" encoding="UTF-8"?> <!-- Generator: Adobe Illustrator 23.0.6, SVG Export Plug-In . SVG Version: 6.00 Build 0) --> <svg xmlns="http://www.w3.org/2000/svg" xmlns:xlink="http://www.w3.org/1999/xlink" id="Layer_1" x="0px" y="0px" viewBox="0 0 1713.2 545.6" style="enable-background:new 0 0 1713.2 545.6;" xml:space="preserve"> <style type="text/css"> .st0{enable-background:new ;} .st1{clip-path:url(#SVGID_2_);} .st2{fill:#B61F34;} .st3{fill:#760008;} .st4{fill:#DA1A32;} .st5{clip-path:url(#SVGID_4_);} .st6{fill:none;stroke:#000000;stroke-width:5;stroke-linecap:round;stroke-linejoin:round;} .st7{fill:none;stroke:#D10000;stroke-width:4;stroke-linecap:round;stroke-linejoin:round;} </style> <title>NARI Side text spelled out</title> <path d="M818.5,380.3c-3.5,4.8-8,7.4-10,7.4s-2.9-1.7-1.6-8.2l1-5c-2.3,3.7-5.2,7-8.6,9.7c-2.3,1.9-5,3.5-7.4,3.5s-4.6-3.1-4.6-8.9 c0-6.8,3.1-14.3,8-18.7c3.7-3.5,8.6-5.5,13.7-5.7c3.7,0,7,1.1,8.3,1.2c-1.3,4.5-3.8,15.6-5.2,23.8c-0.4,2-0.2,2.8,0.4,2.8 c0.9,0,2.4-0.9,5-3.6L818.5,380.3z M805.5,374.3c1.9-2.6,3.3-5.5,4.2-8.6c0.7-2.3,1.2-4.7,1.6-7.1c-1.7-0.7-3.6-1.1-5.5-1.1 c-8.5,0-12.5,10.9-12.5,20.3c0,2.9,0.8,4.8,2.2,4.8C797.8,382.5,801,380.3,805.5,374.3L805.5,374.3z"></path> <path d="M842.4,357.6c-1.4,0.1-5.1,0.4-7.3,0.4c-3.2,15-4.2,19.6-4.6,21.7s0.1,2.9,0.7,2.9c1.4,0,3.8-1.9,6.5-4.5l0.9,1.8 c-2.3,3.5-7.9,7.6-11,7.6c-2.5,0-3.7-2-1.9-10.4l4.2-19.1h-5.8v-0.6l2.1-2.3h4.3l1.7-7.7c2-1.2,3.9-2.5,5.7-4l0.7,0.4 c-0.9,2.9-2,7.6-2.8,11.3h8L842.4,357.6z"></path> <path d="M880.7,357.6c-1.4,0.1-5.1,0.4-7.3,0.4c-3.2,15-4.2,19.6-4.6,21.7s0.1,2.9,0.7,2.9c1.4,0,3.8-1.9,6.5-4.5l1,1.8 c-2.3,3.5-7.9,7.6-11,7.6c-2.5,0-3.8-2-1.9-10.4l4.2-19.1h-5.8v-0.6l2.1-2.3h4.3l1.7-7.7c2-1.2,3.9-2.5,5.7-4l0.6,0.4 c-0.9,2.9-2,7.6-2.8,11.3h8L880.7,357.6z"></path> <path d="M886.7,337.4c3-0.3,6-0.9,8.9-1.8c0.6-0.3,1.3-0.5,2-0.6c0.6,0,0.7,0.7,0.4,2.4c-2,9.2-4.6,20.7-6.6,29.9 c5.8-8,13-13,17.5-13c2.5,0,4.8,1.1,2.5,10.3c-1,4.5-2.4,10.5-3.5,15c-0.5,1.9-0.4,2.7,0.2,2.7s2.4-0.9,5-3.6l1.1,1.7 c-3.5,4.8-8.2,7.1-10.3,7.1s-2.7-2.2-1.4-7.4c1.3-5,2.8-11.4,4-16.2c1-4.1,0.4-5.2-1-5.2c-2.7,0-8.1,3.5-12.9,11.4 c-1.2,1.8-2.1,3.9-2.6,6c-0.7,2.9-1.6,7.1-2.2,9.9c-1.8,0.3-3.5,0.8-5.2,1.4l-0.5-0.5c3.1-13.9,6.8-31.5,9.4-44.4c0.6-3,0.1-3-2-3.2 c-0.8-0.1-2.4-0.2-3-0.2L886.7,337.4z"></path> <path d="M928.4,387.6c-3.5,0-8.1-2-8.1-10.7c0-6.7,2.9-14.7,8.6-18.9c3.2-2.3,6.6-3.7,9.7-3.7c4.1,0,6.4,2.6,6.4,5.8 c0,7.2-10.6,10.6-18.7,12c-0.1,0.9-0.1,2.3-0.1,3c0,4.2,1.2,8.2,5.6,8.2c3.2,0,7.1-2,10.7-5.7l1.1,1.8 C937.7,386.2,932,387.6,928.4,387.6z M926.6,369.7c10.4-1.9,12.9-5.2,13-8.5c0.2-1.9-1.2-3.6-3.1-3.8c-0.2,0-0.4,0-0.7,0 C933.7,357.4,928.7,359,926.6,369.7z"></path> <path d="M1018,342c-4.9,0.3-6,1.8-6.6,4.5s-1.8,7.1-4.4,20.5c-2.6,13.8-7.6,21-20.4,20.9c-9.8-0.1-17.6-4.9-14.6-20.1l3.8-19.4 c1-5.5,0.4-5.8-5.5-6.3l0.4-2h18.9l-0.4,2c-5.8,0.6-6.4,0.7-7.5,6.3l-3.7,19.2c-2.4,12,2.6,16.5,10.2,16.5c8.8,0,13.1-4.5,15.5-16.9 c2.7-13.8,3.5-18.3,3.7-21c0.2-3-1.1-3.7-6.5-4.1l0.5-2h17.1L1018,342z"></path> <path d="M1048.6,380.3c-3.8,5-8.2,7.4-10.3,7.4c-1.9,0-2.9-1.7-1.6-7.6c1.3-5.1,2.5-10.2,3.6-14.8s0.9-6.3-0.9-6.3 c-2.4,0-7.9,4-12.8,11.5c-1.2,1.8-2,3.9-2.4,6c-0.7,2.8-1.7,6.7-2.2,9.6c-1.7,0.4-3.5,0.8-5.1,1.4l-0.5-0.5c2-7.8,4.1-16.6,5.9-24.6 c0.5-2.2,0.2-2.9-0.4-2.9c-0.8,0-2.6,1.6-4.4,3.3l-1-1.9c3.3-4.2,7.1-6.8,9.4-6.8c2.1,0,2.7,2.5,1.2,8.8l-1,4.2 c6.4-8.4,12.9-13,17.2-13c2.4,0,4.6,1.7,2.3,11.3c-0.9,4-2.3,9.5-3.4,14c-0.4,1.9-0.4,2.8,0.1,2.8s2.7-1.1,5.3-3.9L1048.6,380.3z"></path> <path d="M1068.1,380.5c-3.6,4.8-8.1,7.1-10.3,7.1c-1.9,0-2.7-1.9-1.3-7.6c1.2-4.8,3.2-12.5,4.5-18.3c0.3-1.4,0.2-2-0.2-2 c-0.7,0-2.9,1.4-4.8,3.2l-0.9-1.9c3.4-3.7,8.3-6.8,10.6-6.8c1.8,0,1.9,2.5,0.6,7.8s-3.1,12.5-4.4,17.6c-0.5,1.9-0.5,2.7,0,2.7 c0.7,0,2.7-1,5.2-3.7L1068.1,380.5z M1070.1,342.8c0.1,2.2-1.6,4.1-3.8,4.2c-1.7,0.1-3.1-1.3-3.2-3c0-0.1,0-0.2,0-0.3 c0-2.3,1.7-4.1,4-4.2C1069.2,339.4,1070.2,341,1070.1,342.8L1070.1,342.8z"></path> <path d="M1072.5,361.2c2.7-3.8,6.5-7,8.7-7c1.9,0,2.8,2.2,3.1,8.1c0.4,7.1,0.5,14,0.7,18.4c3.2-4,11.6-13.5,11.6-18.6 c-0.1-1.2-0.5-2.4-1.2-3.5c-0.3-0.4-0.4-1-0.1-1.5c0.8-1.6,2.4-2.7,4.2-2.9c1.7,0,2.7,1.7,2.7,4.1c0,2.2-1,5.7-4.3,10.4 c-4,5.8-11.2,13.9-15.5,18.9h-2.1c-0.3-7.4-0.7-17.4-1.1-23.5c-0.3-3.7-0.7-4.5-1.4-4.5c-0.5,0-1.8,0.6-4.1,3.4L1072.5,361.2z"></path> <path d="M1115.2,387.6c-3.5,0-8.1-2-8.1-10.7c0-6.7,2.9-14.7,8.6-18.9c3.2-2.3,6.6-3.7,9.7-3.7c4.1,0,6.4,2.6,6.4,5.8 c0,7.2-10.6,10.6-18.7,12c-0.1,0.9-0.2,2.3-0.2,3c0,4.2,1.2,8.2,5.6,8.2c3.2,0,7.1-2,10.7-5.7l1.1,1.8 C1124.4,386.2,1118.8,387.6,1115.2,387.6z M1113.4,369.7c10.4-1.9,12.9-5.2,13-8.5c0.2-1.9-1.2-3.6-3.1-3.8c-0.2,0-0.4,0-0.7,0 C1120.4,357.4,1115.4,359,1113.4,369.7z"></path> <path d="M1136.2,361.1c3.6-4.2,7.4-6.8,9.5-6.8c2.4,0,2.2,3.8,0.9,10l-0.4,1.9c3.9-6.6,8.8-12,11.7-12c1.8,0,3.3,1.4,3.3,3.2 c0,1.6-1.5,3.7-2.8,4.6c-0.7,0.4-1.2,0.4-1.6,0c-0.8-0.9-1.5-2.1-2.4-2.1c-1.7,0-5.2,5.1-6.8,8.1c-2.5,4.5-3.8,11.2-5.3,18.1 c-1.8,0.4-3.5,0.8-5.3,1.4l-0.5-0.5c1.7-6.6,4.2-17.6,5.3-22.8c0.8-4,0.6-4.7,0.1-4.7c-0.7,0-2.5,1.1-4.7,3.3L1136.2,361.1z"></path> <path d="M1182.8,358.2c-0.1,1.5-1,2.7-2.2,3.5c-0.7,0.3-1.1,0.1-1.7-0.5c-2-2.2-3.8-3.2-5.4-3.2c-2.2,0.1-3.9,1.9-3.9,4.1 c0,2.4,2.2,4.1,4.8,6.1c4.3,3.4,6.2,5.3,6.2,8.4c0,5.9-7.5,11.1-13.3,11.1c-3.5,0-6.8-2.4-6.8-4.9c0-1.6,1.7-3.5,3-3.7 c0.5-0.1,0.8,0.2,1.2,0.7c1.8,2.6,4,4.2,6.3,4.2c2.5,0.1,4.6-1.8,4.8-4.3c0-0.1,0-0.1,0-0.2c0-1.7-0.8-3.5-4.2-6.3s-6.3-4.7-6.3-8.4 c0-2.2,0.9-4.5,3.7-7c2.2-2.1,5.1-3.3,8.1-3.5C1180.2,354.3,1182.8,356.1,1182.8,358.2z"></path> <path d="M1200.2,380.5c-3.6,4.8-8.1,7.1-10.3,7.1c-1.9,0-2.7-1.9-1.3-7.6c1.2-4.8,3.2-12.5,4.5-18.3c0.3-1.4,0.2-2-0.2-2 c-0.7,0-2.9,1.4-4.8,3.2l-0.9-1.9c3.4-3.7,8.3-6.8,10.6-6.8c1.8,0,1.9,2.5,0.6,7.8s-3.1,12.5-4.4,17.6c-0.5,1.9-0.5,2.7,0,2.7 c0.7,0,2.7-1,5.2-3.7L1200.2,380.5z M1202.2,342.8c0.1,2.2-1.6,4.1-3.8,4.2c-1.7,0.1-3.1-1.3-3.2-3c0-0.1,0-0.2,0-0.3 c0-2.3,1.7-4.1,4-4.2C1201.2,339.4,1202.2,341,1202.2,342.8L1202.2,342.8z"></path> <path d="M1225.2,357.6c-1.4,0.1-5.1,0.4-7.3,0.4c-3.2,15-4.2,19.6-4.6,21.7s0.1,2.9,0.7,2.9c1.4,0,3.8-1.9,6.5-4.5l0.9,1.8 c-2.3,3.5-7.9,7.6-11,7.6c-2.5,0-3.7-2-1.9-10.4l4.2-19.1h-5.8v-0.6l2.1-2.3h4.3l1.7-7.7c2-1.2,3.9-2.5,5.7-4l0.7,0.4 c-0.9,2.9-2,7.6-2.8,11.3h8L1225.2,357.6z"></path> <path d="M1228.4,361.4c2.2-3.3,6.3-7.1,8.9-7.1s3.4,4.6,3.9,10.9s0.8,12.5,1.1,17.1c3.2-4.8,10.4-15,10.4-20.3 c-0.1-1.2-0.5-2.4-1.1-3.5c-0.4-0.8-0.3-1.7,0.3-2.3c0.8-1,2-1.7,3.3-1.9c1.7,0,2.7,1.6,2.7,4c-0.2,2.9-1,5.8-2.5,8.3 c-5.8,10.7-17.9,27.6-26.1,36.6l-7.5,1.9l-0.7-1.6c6.3-4.1,11.9-9.3,16.5-15.3c-0.1-5.8-0.9-16.1-1.6-22.7c-0.4-4.4-1.2-6-1.9-6 s-2.7,1.7-4.5,3.8L1228.4,361.4z"></path> <path d="M1306.1,365.5c0,7.5-3.8,15.2-10.1,19.2c-2.6,1.8-5.7,2.7-8.9,2.9c-6.8,0-9.7-5.5-9.7-11.2c0-9.9,5.3-17.1,11.6-20.2 c2.3-1.2,4.8-1.8,7.4-1.9C1302.6,354.3,1306.1,358.2,1306.1,365.5z M1283.6,375.6c0,5.4,2,9,6,9c6.8,0,10.4-11,10.4-18.8 c0-6-2.6-8.5-6-8.5C1286.8,357.3,1283.6,368.2,1283.6,375.6z"></path> <path d="M1318.8,355.1c1.1-5.4,2.7-10.6,6.2-14.5c3.3-3.7,7.6-5.7,10.4-5.7c2.5,0,4.6,1.4,4.6,3c-0.3,1.4-1,2.7-2.2,3.6 c-0.4,0.5-1.2,0.5-1.6,0c0,0,0,0,0,0c-1.7-1.8-3.4-2.7-5-2.7c-2.7,0-4.7,3-6.9,16.3h8.1l-1.4,2.6c-1.2,0.1-5.3,0.4-7.2,0.4 c-1.4,7.9-2.2,12.5-3.8,21c-2.4,12.8-5.1,17.7-9.1,21.8c-3.2,3.5-6.6,4.8-8.3,4.8c-2.7,0-4.6-1.4-4.6-3.2c0.2-1.6,1-3,2.2-4 c0.4-0.4,1-0.4,1.4,0c1.4,1.2,2.9,2.5,4.7,2.5c4.1,0,5.3-5,7.8-19.4c1.7-9.8,2.9-16.4,4-23.5h-6.1l0.1-0.9l2-2.1L1318.8,355.1z"></path> <path d="M1401.6,342c-4.8,0.4-5.9,1.5-6.8,4.5c-0.6,2.2-1.4,5.5-2.7,12.1l-5.5,28.7h-2.5l-21.7-38l-3.6,19.1c-1.2,6-1.7,9.6-2,12 c-0.2,3.3,1.3,3.9,6.4,4.3l-0.4,2h-17.2l0.4-2c4-0.3,5.8-1.1,6.8-4.4c1.2-4,2.1-8,2.8-12.1l3.9-20c0.4-1.4,0-3-0.9-4.1 c-0.9-1.1-2.5-1.9-6-2.2l0.5-2h10.5l21.8,37.2l3.6-18.7c1.2-6.5,1.8-9.9,2-12c0.3-3.2-0.9-4.2-6.3-4.5l0.5-2h16.7L1401.6,342z"></path> <path d="M1408.5,387.6c-3.5,0-8.1-2-8.1-10.7c0-6.7,2.9-14.7,8.6-18.9c3.2-2.3,6.6-3.7,9.7-3.7c4.1,0,6.4,2.6,6.4,5.8 c0,7.2-10.6,10.6-18.7,12c-0.1,0.9-0.1,2.3-0.1,3c0,4.2,1.2,8.2,5.6,8.2c3.2,0,7.1-2,10.7-5.7l1.1,1.8 C1417.8,386.2,1412.1,387.6,1408.5,387.6z M1406.7,369.7c10.4-1.9,12.9-5.2,13-8.5c0.2-1.9-1.2-3.6-3.1-3.8c-0.2,0-0.4,0-0.7,0 C1413.7,357.4,1408.8,359,1406.7,369.7L1406.7,369.7z"></path> <path d="M1432.7,337.4c3-0.3,5.9-0.9,8.8-1.8c0.7-0.3,1.4-0.5,2.2-0.6c0.6,0,0.7,0.7,0.4,2.2c-2.4,9.7-4.4,18.8-6.3,27.6 c5.3-6.8,11.4-10.5,15.7-10.5s5.2,4.8,5.2,7.9c-0.2,8.5-4.4,16.5-11.3,21.5c-4.4,3-8.1,4-10.7,4c-1.8,0.1-3.5-0.6-4.8-2 c-1.5-1.6-2.7-4.4-1.2-11.6c2-10,4.4-20.5,6.6-31.4c0.6-2.9,0.1-3-2.1-3.2c-0.8-0.1-2.1-0.1-2.8-0.1L1432.7,337.4z M1452.6,363.3 c0-2.6-0.7-4.8-2.9-4.8c-2.4,0-6,2.1-10.4,7.9c-1.9,2.5-3.1,5.4-3.5,8.5c-1.2,7,1,9.4,4.2,9.4C1447.5,384.3,1452.6,371,1452.6,363.3 L1452.6,363.3z"></path> <path d="M1464.2,361.1c3.6-4.2,7.4-6.8,9.5-6.8c2.4,0,2.2,3.8,0.9,10l-0.4,1.9c3.9-6.6,8.9-12,11.7-12c1.8,0,3.3,1.4,3.3,3.2 c0,1.6-1.5,3.7-2.8,4.6c-0.7,0.4-1.2,0.4-1.6,0c-0.8-0.9-1.5-2.1-2.4-2.1c-1.7,0-5.2,5.1-6.8,8.1c-2.5,4.5-3.8,11.2-5.2,18.1 c-1.8,0.4-3.5,0.8-5.3,1.4l-0.5-0.5c1.7-6.6,4.2-17.6,5.3-22.8c0.8-4,0.6-4.7,0.1-4.7c-0.7,0-2.5,1.1-4.7,3.3L1464.2,361.1z"></path> <path d="M1521,380.3c-3.5,4.8-8,7.4-10,7.4s-2.9-1.7-1.6-8.2l1-5c-2.3,3.7-5.2,7-8.6,9.7c-2.3,1.9-5,3.5-7.4,3.5s-4.6-3.1-4.6-8.9 c0-6.8,3.1-14.3,8-18.7c3.7-3.5,8.6-5.5,13.8-5.7c3.7,0,7,1.1,8.3,1.2c-1.3,4.5-3.8,15.6-5.2,23.8c-0.4,2-0.2,2.8,0.4,2.8 c0.9,0,2.4-0.9,5-3.6L1521,380.3z M1508,374.3c1.9-2.6,3.3-5.5,4.2-8.6c0.7-2.3,1.2-4.7,1.6-7.1c-1.7-0.7-3.6-1.1-5.5-1.1 c-8.5,0-12.5,10.9-12.5,20.3c0,2.9,0.8,4.8,2.2,4.8C1500.3,382.5,1503.4,380.3,1508,374.3L1508,374.3z"></path> <path d="M1546.3,358.2c-0.1,1.5-1,2.8-2.2,3.5c-0.6,0.3-1.1,0.1-1.7-0.5c-2-2.2-3.8-3.2-5.4-3.2c-2.2,0.1-3.9,1.9-3.9,4.1 c0,2.4,2.2,4.1,4.8,6.1c4.3,3.4,6.2,5.3,6.2,8.4c0,5.9-7.5,11.1-13.3,11.1c-3.4,0-6.8-2.4-6.8-4.9c0-1.6,1.7-3.5,3-3.7 c0.5-0.1,0.8,0.2,1.2,0.7c1.8,2.6,4,4.2,6.3,4.2c2.5,0.1,4.6-1.8,4.7-4.3c0-0.1,0-0.1,0-0.2c0-1.7-0.8-3.5-4.2-6.3s-6.3-4.7-6.3-8.4 c0-2.2,0.9-4.5,3.7-7c2.2-2,5.1-3.3,8.1-3.5C1543.8,354.3,1546.3,356.1,1546.3,358.2z"></path> <path d="M1580.8,380.8c-3.5,5.2-6.6,6.8-8.5,6.8s-3.2-1.3-5.6-6.8c-1.7-3.7-3.3-7.4-4.6-10.7c-2.9,3.4-4.5,5.3-5,7.6 c-0.8,3.3-1.2,5.5-1.8,8.5c-1.8,0.4-3.5,0.8-5.2,1.4l-0.5-0.4c3-13.8,7.5-34.6,9.4-44.6c0.4-2.5,0.4-3-4.9-3.3l0.4-1.8 c5.8-0.8,9.9-2.5,10.8-2.5c0.7,0,0.8,0.7,0.4,2.2c-2.2,9.5-5,22.9-7.5,34c4-4.4,14.5-16.9,19.7-16.9c2.1,0,3.3,1,3.3,2.4 c-0.2,1.6-1,3.2-2.2,4.3c-0.8,0.6-1.2,0.7-1.8,0.3s-2-1.6-3.5-1.6s-5.7,4-8.1,6.7c1.2,3.2,3.7,8.4,5.5,12c1.6,3.2,2.6,4.5,3.7,4.5 c0.9,0,2.4-0.9,4.7-3.7L1580.8,380.8z"></path> <path d="M1616.6,380.3c-3.5,4.8-8,7.4-10,7.4s-2.9-1.7-1.6-8.2l1-5c-2.3,3.7-5.2,7-8.6,9.7c-2.3,1.9-5,3.5-7.4,3.5 c-2.5,0-4.6-3.1-4.6-8.9c0-6.8,3.1-14.3,8-18.7c3.7-3.5,8.6-5.5,13.8-5.7c3.7,0,7,1.1,8.4,1.2c-1.3,4.5-3.8,15.6-5.2,23.8 c-0.4,2-0.2,2.8,0.4,2.8c0.9,0,2.4-0.9,5-3.6L1616.6,380.3z M1603.6,374.3c1.9-2.6,3.3-5.5,4.2-8.6c0.7-2.3,1.2-4.7,1.6-7.1 c-1.7-0.7-3.6-1.1-5.5-1.1c-8.5,0-12.4,10.9-12.4,20.3c0,2.9,0.8,4.8,2.2,4.8C1595.8,382.5,1599,380.3,1603.6,374.3L1603.6,374.3z"></path> <g class="st0"> <g> <path d="M622.4,208.4h-13.1l-38.6-55.3v55.3h-13v-77.7h13.1l38.7,55.3v-55.3h12.9V208.4z"></path> <path d="M653.1,143.7v19.4h32.3V176h-32.3v19.4h38.8v13h-51.8v-77.7h51.8v13H653.1z"></path> <path d="M758.2,186.1c0,21.3-21.8,22.3-27,22.3h-25.9v-77.6h25.9c0,0,25.9-0.7,25.9,21.8c0,10.2-6.3,15.4-13,17.1 C758.7,172.6,758.2,186.1,758.2,186.1z M718.2,163.1h13c0,0,12.9,0,12.9-9.7c0-10.4-12.9-9.8-12.9-9.8h-13V163.1z M745.2,185.7 c0-10.4-14-9.7-14-9.7h-13v19.4h13C736.6,195.5,745.2,194.2,745.2,185.7z"></path> <path d="M795.7,176h-10.5v32.4h-13v-77.7H798c0,0,26,0,26,22.6c0,12.5-8,18.1-15,20.6l15.9,34.4h-14.3L795.7,176z M785.1,163.1 H798c0,0,13,0,13-9.8c0-9.7-13-9.7-13-9.7h-12.9V163.1z"></path> <path d="M874.6,199.4h-27.3l-3.3,9h-14l31-79.9l31.1,79.9h-14L874.6,199.4z M851.5,188.2h18.9l-9.4-27L851.5,188.2z"></path> <path d="M898,186.8h13c0.2,6.4,5.5,9.7,11.3,9.7c6,0,11.3-3.8,11.3-9.9c0-6.5-6.1-10.7-11.3-10.9c-0.7,0-6,0-11.7-2.6 c-8.1-3.8-12.7-10.7-12.7-19.9c0-14.8,11.8-23.8,24.3-23.8c13.4,0,23.8,9.1,24,22.3h-12.9c-0.2-6.4-5.2-9.3-11.1-9.3 c-6.1,0-11.3,3.6-11.3,10.8c0,6.4,5.5,9.9,11.3,9.9c0.6,0,6,0,11.5,2.6c8.2,3.8,12.7,11.7,12.7,20.9c0,14.9-11.7,22.9-24.2,22.9 C908.9,209.1,898.3,201.4,898,186.8z"></path> <path d="M990,170.2l32.3,38.2h-17l-24-29.5l-7.3,8.2v21.3h-13v-77.7h13v39.2l31.9-39.2h16.2L990,170.2z"></path> <path d="M1068.6,199.4h-27.3l-3.3,9h-14l31-79.9l31.1,79.9h-14L1068.6,199.4z M1045.5,188.2h18.9l-9.4-27L1045.5,188.2z"></path> <path d="M1169,199.4h-27.3l-3.3,9h-14l31-79.9l31.1,79.9h-14L1169,199.4z M1145.9,188.2h18.9l-9.4-27L1145.9,188.2z"></path> <path d="M1247.1,153.4c0,22.8-26,22.8-26,22.8h-13v32.4h-13v-77.9h26C1221.1,130.7,1247.1,130.7,1247.1,153.4z M1234.1,153.4 c0-9.8-13-9.8-13-9.8h-13v19.5h13C1221.1,163.2,1234.1,163.2,1234.1,153.4z"></path> <path d="M1311.5,153.4c0,22.8-26,22.8-26,22.8h-13v32.4h-13v-77.9h26C1285.5,130.7,1311.5,130.7,1311.5,153.4z M1298.5,153.4 c0-9.8-13-9.8-13-9.8h-13v19.5h13C1285.5,163.2,1298.5,163.2,1298.5,153.4z"></path> <path d="M1365.7,195.4v13h-41.7v-77.7h13v64.7H1365.7z"></path> <path d="M1379.9,130.7h13v77.7h-13V130.7z"></path> <path d="M1423.6,143.7v19.4h32.3V176h-32.3v19.4h38.8v13h-51.8v-77.7h51.8v13H1423.6z"></path> <path d="M1488.9,130.7c18.9,0,45.4,4.3,45.4,38.8c0,33.2-26.1,38.8-45.4,38.8h-13v-77.7H1488.9z M1521.2,169.5 c0-31.1-32.3-26.2-32.3-26.2v52.4C1488.9,195.7,1521.2,200.2,1521.2,169.5z"></path> </g> </g> <g class="st0"> <g> <path d="M581.1,271h-10.5v32.4h-13v-77.7h25.9c0,0,26,0,26,22.6c0,12.5-8,18.1-15,20.6l15.9,34.4H596L581.1,271z M570.6,258.1 h12.9c0,0,13,0,13-9.8c0-9.7-13-9.7-13-9.7h-12.9V258.1z"></path> <path d="M637.2,238.7v19.4h32.3V271h-32.3v19.4H676v13h-51.8v-77.7H676v13H637.2z"></path> <path d="M686.7,281.8h13c0.2,6.4,5.5,9.7,11.3,9.7c6,0,11.3-3.8,11.3-9.9c0-6.5-6.1-10.7-11.3-10.9c-0.7,0-6,0-11.7-2.6 c-8.1-3.8-12.7-10.7-12.7-19.9c0-14.8,11.8-23.8,24.3-23.8c13.4,0,23.8,9.1,24,22.3h-12.9c-0.2-6.4-5.2-9.3-11.1-9.3 c-6.1,0-11.3,3.6-11.3,10.8c0,6.4,5.5,9.9,11.3,9.9c0.6,0,6,0,11.5,2.6c8.2,3.8,12.7,11.7,12.7,20.9c0,14.9-11.7,22.9-24.2,22.9 C697.6,304.1,686.9,296.4,686.7,281.8z"></path> <path d="M762.7,238.7v19.4H795V271h-32.3v19.4h38.8v13h-51.8v-77.7h51.8v13H762.7z"></path> <path d="M850.9,294.4h-27.3l-3.3,9h-14l31-79.9l31.1,79.9h-14L850.9,294.4z M827.8,283.2h18.9l-9.4-27L827.8,283.2z"></path> <path d="M900.5,271h-10.5v32.4h-13v-77.7h25.9c0,0,26,0,26,22.6c0,12.5-8,18.1-15,20.6l15.9,34.4h-14.3L900.5,271z M889.9,258.1 h12.9c0,0,13,0,13-9.8c0-9.7-13-9.7-13-9.7h-12.9V258.1z"></path> <path d="M998.2,283.9l9.1,9.2c-7,7-16.6,11.3-27.4,11.3c-21.4,0-39-15.5-39-40c0-23.4,16.2-40,39-40c10.8,0,20.4,4.3,27.4,11.4 l-9.1,9.1c-4.7-4.7-11.2-7.5-18.3-7.5c-16,0-25.8,11.3-25.8,27c0,16.6,11.4,27,25.8,27C986.9,291.5,993.5,288.6,998.2,283.9z"></path> <path d="M1079.1,225.7v77.7h-13V271h-32.3v32.4h-13v-77.7h13v32.2h32.3v-32.2H1079.1z"></path> <path d="M1135.3,225.7h13v77.7h-13V225.7z"></path> <path d="M1230.8,303.4h-13.1l-38.6-55.3v55.3h-13v-77.7h13.1l38.7,55.3v-55.3h12.9V303.4z"></path> <path d="M1245.7,281.8h13c0.2,6.4,5.5,9.7,11.3,9.7c6,0,11.3-3.8,11.3-9.9c0-6.5-6.1-10.7-11.3-10.9c-0.7,0-6,0-11.7-2.6 c-8.1-3.8-12.7-10.7-12.7-19.9c0-14.8,11.8-23.8,24.3-23.8c13.4,0,23.8,9.1,24,22.3h-12.9c-0.2-6.4-5.2-9.3-11.1-9.3 c-6.1,0-11.3,3.6-11.3,10.8c0,6.4,5.5,9.9,11.3,9.9c0.6,0,6,0,11.5,2.6c8.2,3.8,12.7,11.7,12.7,20.9c0,14.9-11.7,22.9-24.2,22.9 C1256.6,304.1,1245.9,296.4,1245.7,281.8z"></path> <path d="M1347.7,237.6h-16.3v65.8h-12.9v-65.8h-16.3v-11.9h45.5V237.6z"></path> <path d="M1358.8,225.7h13v77.7h-13V225.7z"></path> <path d="M1428.5,237.6h-16.3v65.8h-12.9v-65.8H1383v-11.9h45.5V237.6z"></path> <path d="M1439.3,278.5v-52.8h13v52.8c0.7,9,7.9,13,16.1,13c8.1,0,16.2-4.3,16.2-13v-52.8h13v52.8c0,16.5-12.7,26-29.2,26 C1452.4,304.5,1439.3,294.5,1439.3,278.5z"></path> <path d="M1554,237.6h-16.3v65.8h-12.9v-65.8h-16.3v-11.9h45.5V237.6z"></path> <path d="M1577.8,238.7v19.4h32.3V271h-32.3v19.4h38.8v13h-51.8v-77.7h51.8v13H1577.8z"></path> </g> </g> <g> <defs> <rect id="SVGID_1_" x="-16.5" y="-124.2" width="612" height="792"></rect> </defs> <clipPath id="SVGID_2_"> <use xlink:href="#SVGID_1_" style="overflow:visible;"></use> </clipPath> <g class="st1"> <polygon class="st2" points="74.2,52.4 74.2,135.3 157,135.3 "></polygon> <polygon class="st2" points="239.8,218.1 239.8,135.3 157,135.3 "></polygon> <polygon class="st2" points="405.5,135.4 488.3,135.4 488.3,52.6 "></polygon> <polygon class="st2" points="157,301.1 74.2,301.1 74.2,383.9 "></polygon> <polygon class="st2" points="488.3,383.9 405.5,383.9 405.5,466.7 "></polygon> <polygon class="st3" points="74.2,218.1 157,218.1 157,135.3 "></polygon> <polygon class="st3" points="239.8,218.2 239.8,301.1 322.6,301.1 "></polygon> <polygon class="st3" points="405.5,218.2 405.5,301.1 488.3,301.1 "></polygon> <polygon class="st3" points="322.6,135.4 322.6,218.2 405.5,218.2 "></polygon> <polygon class="st3" points="405.5,466.7 405.5,383.9 322.6,383.9 "></polygon> <polygon class="st3" points="74.2,383.5 74.2,466.4 157,466.4 "></polygon> <polygon class="st3" points="157,301.1 157,383.9 239.8,383.9 "></polygon> <polygon class="st4" points="239.8,301.1 239.8,218.3 157,218.3 "></polygon> <polygon class="st4" points="405.5,383.9 405.5,301.1 322.6,301.1 "></polygon> <polygon class="st4" points="405.5,383.9 488.3,383.9 488.3,301.1 "></polygon> <polygon class="st4" points="405.5,218.2 488.3,218.2 488.3,135.4 "></polygon> <polygon class="st4" points="239.8,383.9 157,383.9 157,466.7 "></polygon> <polygon class="st4" points="74.2,218.2 74.2,301.1 157,301.1 "></polygon> <g> <defs> <rect id="SVGID_3_" x="-16.5" y="-124.2" width="612" height="792"></rect> </defs> <clipPath id="SVGID_4_"> <use xlink:href="#SVGID_3_" style="overflow:visible;"></use> </clipPath> <g class="st5"> <path class="st6" d="M74.2,466.3l165.8,0.1V301.5l165.5,165.3l83.7-0.1V52.6H322.6v165.7l0,0l-82.8-83L156.7,52 c0,0-82.5-0.1-82.5,0L74,466.4V52.5"></path> <polyline class="st7" points="70.5,470.4 243.7,470.2 243.4,309.3 404.1,471.1 492.2,470.4 492.3,48.3 319.4,48.3 319.5,210.3 241.1,130.8 158.6,48.3 70.5,48.3 70.5,470.4 "></polyline> </g> </g> </g> </g> </svg> 