<svg height="511pt" viewBox="-13 0 511 511.97321" width="511pt" xmlns="http://www.w3.org/2000/svg"><path d="m230.378906 324.078125h26.53125v136.128906h-26.53125zm0 0" fill="#d3d3dd"/><path d="m266.675781 460.207031h-46.0625c-5.863281.015625-10.613281 4.765625-10.628906 10.628907v9.402343c4.03125 1.8125 8.398437 2.75 12.820313 2.753907 5.675781 0 10.273437 4.597656 10.273437 10.273437v7.253906c0 3.566407-2.890625 6.453125-6.453125 6.453125h33.144531c-3.566406 0-6.453125-2.886718-6.453125-6.453125v-7.253906c0-5.675781 4.597656-10.273437 10.273438-10.273437 4.75 0 9.441406-1.082032 13.714844-3.160157v-9c-.019532-5.859375-4.765626-10.605469-10.628907-10.625zm0 0" fill="#e9e9ea"/><path d="m153.15625 297.546875h180.976562c7.328126 0 13.269532 5.941406 13.269532 13.265625 0 7.328125-5.941406 13.265625-13.269532 13.265625h-180.976562c-7.324219 0-13.265625-5.9375-13.265625-13.265625 0-7.324219 5.941406-13.265625 13.265625-13.265625zm0 0" fill="#b26e3b"/><path d="m115.449219 297.546875h65.328125c8.808594.003906 15.953125-7.132813 15.957031-15.941406.003906-8.804688-7.132813-15.949219-15.941406-15.953125-.007813 0-.011719 0-.015625 0h-65.328125c-1.023438 0-1.957031-.570313-2.421875-1.484375l-32.597656-63.964844c-3.949219-7.875-13.53125-11.058594-21.40625-7.109375-7.871094 3.949219-11.054688 13.53125-7.105469 21.402344l.09375.1875 32.601562 63.96875c5.878907 11.617187 17.8125 18.929687 30.835938 18.894531zm0 0" fill="#60bae2"/><path d="m41.574219 164.636719c.574219.683593 1.292969 1.226562 2.105469 1.601562l41.140624 18.660157c2.851563 1.292968 6.210938.554687 8.257813-1.8125l9.355469-10.828126c9.269531 21.65625 13.429687 45.152344 12.160156 68.675782l-1.277344 23.664062c-.109375-.136718-.203125-.285156-.285156-.4375l-32.601562-63.96875c-3.945313-7.875-13.527344-11.054687-21.402344-7.109375-7.875 3.949219-11.058594 13.53125-7.109375 21.40625.03125.0625.066406.121094.097656.183594l32.597656 63.96875c5.253907 10.371094 15.386719 17.386719 26.9375 18.660156l-.683593 12.710938v14.058593h-80.015626l-8-101.601562c-1.472656-20.972656 5.238282-41.699219 18.722657-57.832031zm0 0" fill="#55acd5"/><path d="m117.816406 84.636719c-8.757812 4.066406-19.5 4.699219-25.292968 4.699219-2.71875 0-5.308594 1.179687-7.089844 3.238281l-3.097656 3.558593c-4.40625-2.21875-9.773438-.449218-11.996094 3.957032-1.472656 2.925781-1.226563 6.425781.644531 9.117187l-3.402344 3.917969c-2.164062 2.496094-5.308593 3.925781-8.613281 3.925781h-13.945312c.0625 20.269531 16.476562 36.683594 36.742187 36.742188 20.269531-.058594 36.6875-16.476563 36.746094-36.742188v-25.34375c-.003907-2.375-.234375-4.742187-.695313-7.070312zm0 0" fill="#f9d0b4"/><path d="m162.425781 265.652344h18.351563c8.808594-.003906 15.953125 7.132812 15.957031 15.9375.003906 8.808594-7.132813 15.953125-15.941406 15.957031-.007813 0-.011719 0-.015625 0h-18.351563zm0 0" fill="#f9d0b4"/><path d="m100.996094 164.0625-49.550782-19.140625c-2.449218-.945313-5.199218.273437-6.144531 2.722656 0 0 0 .003907-.003906.003907l-4.179687 10.84375c-1.160157 3.019531.230468 6.417968 3.175781 7.753906l41.140625 18.664062c2.851562 1.292969 6.214844.554688 8.257812-1.816406l9.355469-10.824219c1.871094-2.164062 1.628906-5.429687-.53125-7.292969-.449219-.390624-.964844-.699218-1.519531-.914062zm0 0" fill="#e9e9ea"/><path d="m299.617188 467.128906-20.421876 11.707032c-4.746093 2.722656-10.125 4.15625-15.597656 4.15625-5.675781 0-10.273437 4.597656-10.273437 10.273437v7.253906c0 3.566407 2.886719 6.453125 6.453125 6.453125h67.4375c6.984375 0 12.644531-5.664062 12.644531-12.644531 0-.34375-.015625-.683594-.042969-1.027344l-1.835937-22.480469-16.230469 3.6875zm0 0" fill="#c1814c"/><path d="m186.777344 467.128906 20.417968 11.707032c4.75 2.722656 10.128907 4.15625 15.601563 4.15625 5.671875 0 10.273437 4.597656 10.273437 10.273437v7.253906c0 3.566407-2.890624 6.453125-6.453124 6.453125h-67.441407c-6.984375 0-12.644531-5.664062-12.640625-12.644531 0-.34375.011719-.683594.042969-1.027344l1.835937-22.480469 16.230469 3.6875zm0 0" fill="#c1814c"/><path d="m299.617188 467.128906v-6.921875h38.367187v10.613281l-16.234375 3.6875zm0 0" fill="#e9e9ea"/><path d="m186.777344 467.128906v-6.921875h-38.367188v10.613281l16.234375 3.6875zm0 0" fill="#e9e9ea"/><path d="m362.660156 375.167969h109.628906c4.757813 0 8.617188 3.859375 8.617188 8.617187v114.570313c0 4.757812-3.859375 8.617187-8.617188 8.617187h-109.628906c-4.757812 0-8.617187-3.859375-8.617187-8.617187v-114.570313c0-4.757812 3.859375-8.617187 8.617187-8.617187zm0 0" fill="#d3d3dd"/><path d="m14.105469 375.167969h109.632812c4.757813 0 8.613281 3.859375 8.613281 8.617187v114.570313c0 4.757812-3.855468 8.617187-8.613281 8.617187h-109.632812c-4.757813 0-8.617188-3.859375-8.617188-8.617187v-114.570313c0-4.757812 3.859375-8.617187 8.617188-8.617187zm0 0" fill="#d3d3dd"/><path d="m368.578125 84.636719c8.757813 4.066406 19.5 4.699219 25.289063 4.699219 2.71875 0 5.304687 1.175781 7.089843 3.226562l3.097657 3.570312c4.40625-2.222656 9.777343-.449218 11.996093 3.957032 1.476563 2.925781 1.230469 6.425781-.640625 9.117187l3.402344 3.914063c2.164062 2.496094 5.304688 3.929687 8.609375 3.929687h13.945313c-.054688 20.265625-16.472657 36.683594-36.742188 36.742188-20.265625-.058594-36.679688-16.472657-36.742188-36.742188v-25.34375c0-2.375.234376-4.742187.695313-7.070312zm0 0" fill="#f9d0b4"/><path d="m370.945312 297.546875h-65.328124c-8.808594-.003906-15.945313-7.148437-15.941407-15.957031.003907-8.800782 7.140625-15.933594 15.941407-15.9375h65.328124c1.023438 0 1.960938-.570313 2.421876-1.484375l32.597656-63.964844c4.050781-7.824219 13.675781-10.878906 21.496094-6.828125 7.75 4.011719 10.835937 13.507812 6.921874 21.308594l-32.597656 63.96875c-5.882812 11.621094-17.816406 18.929687-30.839844 18.894531zm0 0" fill="#e9e9ea"/><path d="m323.96875 265.652344h-18.351562c-8.808594-.003906-15.953126 7.132812-15.957032 15.9375-.003906 8.808594 7.132813 15.953125 15.941406 15.957031h.015626 18.351562zm0 0" fill="#f9d0b4"/><path d="m385.398438 164.0625 49.550781-19.140625c2.449219-.945313 5.203125.273437 6.144531 2.722656 0 0 0 .003907.003906.003907l4.179688 10.84375c1.160156 3.019531-.230469 6.417968-3.175782 7.753906l-41.140624 18.664062c-2.851563 1.292969-6.210938.554688-8.257813-1.816406l-9.355469-10.824219c-1.867187-2.164062-1.632812-5.429687.53125-7.292969.449219-.390624.964844-.699218 1.519532-.914062zm0 0" fill="#e9e9ea"/><path d="m444.820312 164.636719c-.574218.683593-1.292968 1.226562-2.105468 1.601562l-41.140625 18.660157c-2.851563 1.292968-6.214844.554687-8.257813-1.8125l-9.359375-10.828126c-9.269531 21.65625-13.429687 45.152344-12.160156 68.675782l1.28125 23.664062c.109375-.136718.203125-.285156.285156-.4375l32.597657-63.96875c3.949218-7.875 13.53125-11.054687 21.40625-7.109375 7.875 3.949219 11.054687 13.53125 7.105468 21.40625-.03125.0625-.0625.121094-.09375.183594l-32.601562 63.96875c-5.25 10.371094-15.382813 17.386719-26.9375 18.660156l.6875 12.710938v14.058593h80.007812l8-101.601562c1.476563-20.972656-5.234375-41.699219-18.714844-57.832031zm0 0" fill="#d3d3dd"/><path d="m413.449219 56.046875s48.058593-2.554687 27.917969 61h-13.945313c-3.304687 0-6.445313-1.433594-8.609375-3.929687l-3.402344-3.914063c2.820313-4.050781 1.824219-9.617187-2.226562-12.433594-2.691406-1.875-6.195313-2.121093-9.128906-.640625l-3.097657-3.570312c-1.785156-2.050782-4.371093-3.226563-7.089843-3.226563-8.664063.195313-17.273438-1.40625-25.289063-4.699219-7.648437-3.550781-13.785156-9.722656-13.785156-20.382812.003906-28.304688 42.605469-28.179688 58.65625-8.203125zm0 0" fill="#6d6c6b"/><path d="m375.53125 324.078125-47.933594 10.839844c-20.085937 4.546875-34.34375 22.390625-34.34375 42.984375v82.304687h45.46875v-70.832031c0-7.84375 6.359375-14.203125 14.203125-14.203125h74.558594c15.492187 0 28.050781-12.558594 28.050781-28.050781v-23.042969zm0 0" fill="#6d6c6b"/><path d="m72.945312 56.046875s-48.0625-2.554687-27.921874 61h13.945312c3.304688 0 6.449219-1.433594 8.613281-3.929687l3.402344-3.914063c-2.816406-4.050781-1.8125-9.617187 2.238281-12.429687 2.691406-1.867188 6.191406-2.113282 9.113282-.640626l3.101562-3.566406c1.78125-2.054687 4.367188-3.230468 7.085938-3.226562 8.664062.195312 17.277343-1.410156 25.292968-4.703125 7.648438-3.550781 13.78125-9.71875 13.78125-20.378907 0-28.3125-42.601562-28.1875-58.652344-8.210937zm0 0" fill="#6d6c6b"/><path d="m110.859375 324.078125 47.9375 10.839844c20.082031 4.546875 34.34375 22.390625 34.34375 42.984375v82.304687h-45.480469v-70.832031c0-7.84375-6.359375-14.203125-14.199218-14.203125h-74.558594c-15.492188 0-28.050782-12.558594-28.050782-28.050781v-23.042969zm0 0" fill="#6d6c6b"/><path d="m251.085938 21.863281c-24.8125-22.558593-63.21875-20.734375-85.78125 4.078125-18.03125 19.828125-20.929688 49.128906-7.136719 72.105469.636719 1.082031.695312 2.410156.160156 3.546875l-10.433594 22.425781c-.894531 1.925781-.058593 4.207031 1.867188 5.101563 1.023437.476562 2.207031.476562 3.234375 0l22.429687-10.433594c1.175781-.535156 2.542969-.453125 3.648438.222656 28.789062 17.203125 66.074219 7.8125 83.277343-20.976562 14.824219-24.804688 10.113282-56.625-11.265624-76.070313zm0 0" fill="#f75c64"/><path d="m338.5 124.019531-10.433594-22.425781c-.539062-1.136719-.476562-2.464844.160156-3.546875 17.261719-28.75 7.949219-66.046875-20.796874-83.3125-19.863282-11.925781-44.78125-11.507813-64.234376 1.074219 2.796876 1.796875 5.433594 3.824218 7.890626 6.054687 24.8125 22.597657 26.609374 61.027344 4.015624 85.835938-3.519531 3.863281-7.519531 7.257812-11.90625 10.09375 19.425782 12.535156 44.277344 12.96875 64.128907 1.121093 1.101562-.675781 2.46875-.757812 3.644531-.222656l22.429688 10.433594c1.921874.894531 4.203124.058594 5.101562-1.863281.476562-1.027344.476562-2.210938 0-3.242188zm0 0" fill="#60bae2"/><path d="m481.671875 17.84375c-8.886719-1.703125-15.832031-8.652344-17.535156-17.535156-.050781-.214844-.269531-.3476565-.480469-.2968752-.148438.0351562-.261719.1484372-.296875.2968752-1.703125 8.882812-8.652344 15.832031-17.535156 17.535156-.214844.050781-.351563.265625-.296875.480469.035156.148437.148437.261719.296875.296875 8.882812 1.703125 15.832031 8.652344 17.535156 17.535156.050781.214844.265625.347656.480469.296875.148437-.035156.261718-.148437.296875-.296875 1.703125-8.882812 8.652343-15.832031 17.535156-17.535156.214844-.050782.347656-.269532.292969-.480469-.03125-.148437-.148438-.261719-.292969-.296875zm0 0" fill="#60bae2"/><path d="m210.730469 224.742188h-17.332031c-2.753907-.003907-4.988282-2.238282-4.988282-4.992188.003906-2.75 2.234375-4.984375 4.988282-4.984375h17.339843c2.753907-.003906 4.988281 2.230469 4.988281 4.984375.003907 2.753906-2.230468 4.992188-4.984374 4.992188-.003907 0-.003907 0-.007813 0zm0 0" fill="#f75c64"/><path d="m202.058594 233.410156c-2.753906 0-4.988282-2.234375-4.988282-4.988281v-17.339844c.003907-2.753906 2.234376-4.988281 4.992188-4.988281 2.75.003906 4.980469 2.234375 4.984375 4.988281v17.339844c0 2.753906-2.234375 4.988281-4.988281 4.988281zm0 0" fill="#f75c64"/><path d="m155.171875 196.476562c-1.324219 0-2.59375-.523437-3.535156-1.457031-.226563-.230469-.4375-.484375-.617188-.757812-.179687-.273438-.332031-.5625-.457031-.867188-.125-.300781-.21875-.609375-.28125-.925781-.066406-.324219-.101562-.652344-.097656-.980469-.003906-.328125.03125-.65625.097656-.976562.0625-.320313.15625-.628907.28125-.929688.125-.304687.277344-.59375.457031-.867187.179688-.273438.390625-.527344.617188-.757813 1.4375-1.414062 3.574219-1.835937 5.441406-1.078125.296875.125.585937.28125.855469.457032.273437.179687.527344.386718.757812.621093.230469.230469.4375.484375.621094.757813.179688.273437.332031.5625.457031.867187.125.300781.222657.609375.289063.925781.0625.324219.097656.652344.101562.980469-.003906.328125-.039062.65625-.101562.976563-.066406.320312-.164063.628906-.289063.929687s-.277343.59375-.457031.867188c-.183594.273437-.390625.527343-.621094.757812-.230468.230469-.484375.441407-.757812.617188-.269532.179687-.558594.332031-.855469.457031-.304687.125-.621094.21875-.941406.28125-.316407.066406-.640625.101562-.964844.101562zm0 0" fill="#6dcc6d"/><path d="m337.984375 170.054688c-1.324219 0-2.589844-.523438-3.53125-1.457032-.230469-.230468-.4375-.484375-.617187-.757812-.179688-.273438-.335938-.5625-.460938-.867188-.121094-.300781-.214844-.609375-.277344-.925781-.070312-.324219-.101562-.652344-.101562-.980469s.03125-.65625.101562-.976562c.0625-.320313.15625-.628906.277344-.929688.125-.304687.28125-.59375.460938-.867187.179687-.273438.386718-.527344.617187-.757813 1.433594-1.414062 3.570313-1.839844 5.4375-1.078125.300781.125.585937.28125.859375.457031.273438.179688.527344.386719.757812.621094.230469.230469.4375.484375.617188.757813.179688.273437.332031.5625.457031.867187.125.300782.222657.609375.289063.925782.066406.324218.097656.652343.101562.980468-.003906.328125-.039062.65625-.101562.976563-.066406.316406-.164063.628906-.289063.929687-.125.300782-.277343.59375-.457031.867188-.179688.269531-.386719.523437-.617188.757812-.230468.230469-.484374.441406-.757812.617188-.273438.179687-.558594.332031-.859375.457031s-.617187.21875-.9375.28125c-.320313.066406-.640625.101563-.96875.101563zm0 0" fill="#fcd770"/><g fill="#231f20"><path d="m398.082031 190.527344c-3.515625.007812-6.859375-1.515625-9.164062-4.164063l-9.355469-10.824219c-3.675781-4.25-3.207031-10.675781 1.042969-14.347656.886719-.765625 1.898437-1.371094 2.988281-1.792968l49.550781-19.140626c5.023438-1.9375 10.671875.5625 12.609375 5.585938.003906.003906.003906.007812.007813.015625l4.179687 10.84375c2.109375 5.488281-.421875 11.671875-5.777344 14.105469l-41.136718 18.660156c-1.554688.703125-3.242188 1.0625-4.945313 1.058594zm38.4375-40.851563-49.324219 19.050781c-.054687.011719-.09375.0625-.101562.117188l9.398438 10.980469c.597656.6875 1.578124.90625 2.410156.53125l41.140625-18.664063c.53125-.238281.78125-.851562.574219-1.398437zm-51.121093 14.386719"/><path d="m404.625 158.792969c-23.039062-.03125-41.710938-18.703125-41.742188-41.742188v-25.34375c0-2.699219.269532-5.390625.789063-8.039062.535156-2.707031 3.164063-4.472657 5.871094-3.9375.394531.078125.777343.203125 1.140625.371093 7.929687 3.683594 17.933594 4.234376 23.1875 4.234376 4.167968 0 8.128906 1.808593 10.863281 4.949218l.953125 1.09375c7.589844-1.3125 14.804688 3.773438 16.117188 11.363282.386718 2.226562.226562 4.511718-.46875 6.660156l1.253906 1.445312c1.21875 1.398438 2.984375 2.203125 4.835937 2.199219h13.945313c2.761718 0 5 2.238281 5 5-.023438 23.046875-18.699219 41.722656-41.746094 41.746094zm-31.742188-67.230469v25.488281c.003907 17.53125 14.222657 31.742188 31.757813 31.734375 15.59375-.007812 28.875-11.335937 31.335937-26.734375h-8.550781c-4.753906 0-9.269531-2.058593-12.386719-5.648437l-3.402343-3.917969c-1.496094-1.726563-1.632813-4.25-.332031-6.128906.460937-.652344.707031-1.4375.707031-2.238281-.003907-2.175782-1.765625-3.9375-3.941407-3.941407-.613281 0-1.214843.148438-1.761718.425781-2.042969 1.027344-4.523438.539063-6.023438-1.1875l-3.101562-3.570312c-.835938-.957031-2.046875-1.507812-3.316406-1.503906-7.089844.042968-14.152344-.894532-20.984376-2.777344zm0 0"/><path d="m441.367188 122.050781h-13.945313c-4.75 0-9.269531-2.058593-12.386719-5.648437l-3.398437-3.917969c-1.5-1.726563-1.636719-4.25-.332031-6.128906.457031-.652344.703124-1.4375.703124-2.238281 0-2.175782-1.765624-3.9375-3.941406-3.941407-.613281 0-1.214844.148438-1.761718.425781-2.042969 1.027344-4.523438.539063-6.023438-1.1875l-3.097656-3.570312c-.835938-.957031-2.046875-1.507812-3.320313-1.503906-6.074219 0-17.710937-.675782-27.398437-5.167969-10.910156-5.066406-16.675782-13.679687-16.675782-24.914063-.328124-11.496093 7.0625-21.792968 18.054688-25.164062 15.722656-5.53125 36.625-.164062 47.898438 11.976562 5.640624.246094 19.238281 2.074219 28 13.398438 9.1875 11.875 10 30.078125 2.378906 54.089844-.65625 2.074218-2.578125 3.488281-4.753906 3.492187zm-20.035157-13.648437 1.253907 1.445312c1.21875 1.398438 2.984374 2.203125 4.835937 2.199219h10.234375c5.347656-18.640625 4.75-32.90625-1.761719-41.398437-7.800781-10.152344-22.054687-9.613282-22.199219-9.621094-1.601562.082031-3.144531-.609375-4.144531-1.859375-8.199219-10.210938-25.796875-15.089844-38.375-10.65625-6.964843 1.996093-11.664062 8.492187-11.378906 15.730469 0 7.261718 3.5625 12.445312 10.886719 15.847656 7.9375 3.683594 17.933594 4.234375 23.1875 4.234375 4.167968 0 8.128906 1.808593 10.863281 4.949219l.953125 1.09375c7.589844-1.3125 14.804688 3.773437 16.117188 11.363281.386718 2.226562.226562 4.511719-.46875 6.660156zm0 0"/><path d="m370.945312 302.546875h-65.328124c-11.570313.113281-21.039063-9.171875-21.152344-20.742187-.113282-11.566407 9.171875-21.039063 20.742187-21.152344h.40625 63.933594l31.960937-62.71875c5.253907-10.308594 17.867188-14.40625 28.175782-9.152344s14.40625 17.867188 9.152344 28.175781l-32.601563 63.964844c-6.726563 13.300781-20.382813 21.667969-35.289063 21.625zm-65.328124-31.894531c-6.046876-.082032-11.015626 4.753906-11.09375 10.800781-.082032 6.042969 4.753906 11.011719 10.800781 11.09375h.292969 65.328124c11.144532.027344 21.351563-6.226563 26.382813-16.167969l32.601563-63.964844c2.746093-5.386718.601562-11.980468-4.78125-14.726562-5.386719-2.746094-11.980469-.605469-14.726563 4.78125l-32.601563 63.96875c-1.3125 2.589844-3.972656 4.21875-6.875 4.210938zm0 0"/><path d="m323.96875 302.546875h-18.351562c-11.570313.113281-21.039063-9.171875-21.152344-20.742187-.113282-11.566407 9.171875-21.039063 20.742187-21.152344h.40625 18.355469c2.761719 0 5 2.238281 5 5v31.894531c0 2.761719-2.234375 5-5 5zm-18.351562-31.894531c-6.046876-.082032-11.015626 4.753906-11.09375 10.800781-.082032 6.046875 4.753906 11.015625 10.800781 11.09375.097656.003906.195312.003906.292969 0h13.355468v-21.894531zm0 0"/><path d="m455.542969 329.078125h-80c-2.761719 0-5-2.238281-5-5v-13.921875l-.679688-12.578125c-.144531-2.644531 1.804688-4.941406 4.4375-5.238281 9.878907-1.09375 18.542969-7.09375 23.039063-15.957032l32.601562-63.96875c2.746094-5.386718.601563-11.980468-4.78125-14.726562-5.386718-2.746094-11.980468-.601562-14.726562 4.785156l-32.601563 63.964844c-.222656.433594-.484375.839844-.78125 1.222656-1.6875 2.1875-4.828125 2.59375-7.011719.90625-1.15625-.890625-1.863281-2.238281-1.941406-3.691406l-1.277344-23.664062c-1.285156-24.285157 3.011719-48.542969 12.554688-70.910157 1.085938-2.539062 4.027344-3.714843 6.5625-2.628906.699219.300781 1.320312.753906 1.816406 1.328125l9.355469 10.824219c.597656.6875 1.578125.90625 2.410156.53125l41.140625-18.664063c.136719-.066406.261719-.167968.359375-.292968 1.789063-2.101563 4.945313-2.359376 7.050781-.570313.214844.183594.417969.386719.597657.605469 14.351562 17.105468 21.480469 39.128906 19.875 61.398437l-8 101.636719c-.203125 2.609375-2.382813 4.617188-5 4.609375zm-75-10h70.386719l7.640624-97c1.304688-18.167969-3.96875-36.199219-14.859374-50.800781l-40.058594 18.175781c-4.875 2.1875-10.605469.929687-14.113282-3.101563l-3.964843-4.578124c-6.851563 18.847656-9.832031 38.875-8.777344 58.898437l.28125 5.203125 24.4375-47.949219c5.253906-10.308593 17.867187-14.40625 28.175781-9.152343 10.308594 5.253906 14.40625 17.867187 9.152344 28.175781l-32.601562 63.964843c-5.257813 10.378907-14.835938 17.902344-26.164063 20.558594l.445313 8.28125v.269532zm-11.617188-57.1875-.011719.019531zm0 0"/><path d="m338.734375 465.207031h-45.472656c-2.761719 0-5-2.238281-5-5v-82.304687c-.101563-22.964844 15.820312-42.894532 38.242187-47.859375l47.925782-10.839844c.359374-.082031.730468-.125 1.101562-.125h80c2.761719 0 5 2.238281 5 5v23.035156c-.015625 18.246094-14.796875 33.03125-33.039062 33.058594h-74.5625c-5.082032 0-9.199219 4.121094-9.199219 9.203125v70.839844c-.003907 2.757812-2.238281 4.992187-4.996094 4.992187zm-40.472656-10h35.472656v-65.832031c.011719-10.601562 8.601563-19.191406 19.199219-19.203125h74.558594c12.722656-.015625 23.035156-10.328125 23.050781-23.050781v-18.039063h-74.453125l-47.378906 10.71875c-17.851563 3.953125-30.527344 19.820313-30.449219 38.105469zm0 0"/><path d="m327.214844 511.972656h-67.445313c-6.324219-.003906-11.445312-5.128906-11.453125-11.453125v-7.253906c.007813-8.433594 6.839844-15.265625 15.273438-15.273437 4.601562 0 9.125-1.207032 13.121094-3.496094l20.417968-11.707032c1.238282-.707031 2.71875-.851562 4.070313-.398437l20.800781 6.9375 14.867188-3.378906c2.695312-.613281 5.375 1.074219 5.984374 3.765625.054688.230468.089844.464844.109376.703125l1.835937 22.480469c.789063 9.714843-6.449219 18.230468-16.164063 19.015624-.472656.039063-.945312.058594-1.417968.058594zm-27.054688-39.398437-18.472656 10.597656c-5.507812 3.15625-11.75 4.820313-18.097656 4.820313-2.910156.003906-5.269532 2.359374-5.273438 5.273437v7.253906c.003906.804688.652344 1.453125 1.453125 1.453125h67.445313c4.222656 0 7.644531-3.417968 7.648437-7.640625 0-.207031-.007812-.417969-.027343-.625l-1.367188-16.734375-10.609375 2.410156c-.894531.203126-1.824219.160157-2.691406-.128906zm0 0"/><path d="m321.75 479.507812c-.539062 0-1.070312-.085937-1.582031-.257812l-22.132813-7.375c-2.042968-.683594-3.417968-2.59375-3.417968-4.746094v-6.921875c0-2.761719 2.238281-5 5-5h38.367187c2.761719 0 5 2.238281 5 5v10.613281c0 2.332032-1.617187 4.355469-3.890625 4.875l-16.234375 3.691407c-.363281.082031-.734375.121093-1.109375.121093zm-12.089844-14.300781 12.347656 4.117188 10.976563-2.496094v-1.621094zm0 0"/><path d="m88.3125 190.523438c-1.703125.003906-3.390625-.359376-4.945312-1.058594l-41.140626-18.664063c-5.351562-2.4375-7.882812-8.617187-5.773437-14.105469l4.179687-10.847656c1.9375-5.027344 7.585938-7.53125 12.613282-5.59375.003906 0 .003906.003906.003906.003906l49.546875 19.140626c5.238281 2.023437 7.847656 7.914062 5.820313 13.152343-.421876 1.089844-1.023438 2.101563-1.789063 2.984375l-9.351563 10.828125c-2.308593 2.648438-5.648437 4.167969-9.164062 4.160157zm-38.4375-40.847657-4.089844 10.617188c-.207031.542969.042969 1.152343.570313 1.398437l41.144531 18.660156c.832031.375 1.8125.15625 2.410156-.53125l9.355469-10.824218-.070313-.269532zm0 0"/><path d="m81.765625 158.792969c-23.042969-.027344-41.714844-18.699219-41.742187-41.742188 0-2.761719 2.238281-5 5-5h13.945312c1.855469.003907 3.621094-.800781 4.835938-2.199219l1.257812-1.441406c-2.371094-7.332031 1.652344-15.195312 8.980469-17.566406 2.152343-.695312 4.441406-.855469 6.667969-.46875l.949218-1.097656c2.734375-3.140625 6.695313-4.945313 10.863282-4.945313 5.257812 0 15.257812-.554687 23.1875-4.238281 2.503906-1.164062 5.480468-.074219 6.644531 2.429688.167969.363281.292969.746093.367187 1.140624.523438 2.648438.789063 5.339844.792969 8.039063v25.347656c-.03125 23.042969-18.707031 41.714844-41.75 41.742188zm-31.347656-36.742188c2.765625 17.3125 19.042969 29.105469 36.359375 26.335938 15.398437-2.460938 26.730468-15.742188 26.734375-31.335938v-25.488281c-6.835938 1.882812-13.898438 2.816406-20.984375 2.773438-1.273438 0-2.484375.550781-3.320313 1.507812l-3.097656 3.566406c-1.5 1.730469-3.980469 2.21875-6.023437 1.1875-.546876-.277344-1.148438-.421875-1.757813-.421875-2.175781 0-3.941406 1.761719-3.945313 3.9375 0 .804688.246094 1.585938.707032 2.242188 1.304687 1.878906 1.164062 4.402343-.332032 6.128906l-3.402343 3.914063c-3.113281 3.589843-7.632813 5.652343-12.386719 5.652343zm0 0"/><path d="m58.96875 122.050781h-13.945312c-2.179688 0-4.105469-1.410156-4.765626-3.488281-7.597656-24.011719-6.800781-42.210938 2.378907-54.089844 8.769531-11.328125 22.363281-13.15625 28-13.398437 11.277343-12.144531 32.171875-17.515625 47.898437-11.976563 10.992188 3.367188 18.386719 13.664063 18.0625 25.15625 0 11.234375-5.765625 19.851563-16.675781 24.917969-9.679687 4.492187-21.320313 5.164063-27.402344 5.164063-1.269531 0-2.480469.550781-3.316406 1.507812l-3.097656 3.566406c-1.5 1.730469-3.980469 2.21875-6.023438 1.1875-.546875-.277344-1.148437-.421875-1.761719-.421875-2.175781 0-3.941406 1.761719-3.941406 3.9375 0 .804688.246094 1.585938.703125 2.242188 1.304688 1.878906 1.167969 4.402343-.332031 6.128906l-3.398438 3.914063c-3.113281 3.589843-7.632812 5.652343-12.382812 5.652343zm-10.230469-10h10.230469c1.855469.003907 3.621094-.800781 4.835938-2.199219l1.257812-1.441406c-2.371094-7.332031 1.652344-15.195312 8.980469-17.566406 2.152343-.695312 4.441406-.855469 6.667969-.46875l.949218-1.097656c2.734375-3.140625 6.695313-4.945313 10.863282-4.945313 5.253906 0 15.253906-.554687 23.1875-4.238281 7.328124-3.398438 10.886718-8.582031 10.886718-15.84375.285156-7.242188-4.414062-13.738281-11.378906-15.734375-12.597656-4.433594-30.167969.445313-38.375 10.65625-1.007812 1.246094-2.546875 1.933594-4.144531 1.863281-.265625-.015625-14.4375-.488281-22.199219 9.617188-6.511719 8.488281-7.101562 22.753906-1.761719 41.398437zm0 0"/><path d="m180.777344 302.546875h-65.328125c-14.90625.039063-28.5625-8.328125-35.292969-21.628906l-32.601562-63.964844c-5.191407-10.339844-1.019532-22.929687 9.316406-28.121094 10.253906-5.152343 22.746094-1.09375 28.011718 9.097657l31.964844 62.722656h63.929688c11.566406-.113282 21.039062 9.171875 21.152344 20.742187.109374 11.566407-9.175782 21.035157-20.742188 21.152344-.136719 0-.273438 0-.410156 0zm-114.582032-106.050781c-6.042968.007812-10.9375 4.914062-10.929687 10.957031 0 1.722656.410156 3.421875 1.191406 4.957031l32.601563 63.96875c5.03125 9.941406 15.238281 16.195313 26.382812 16.167969h65.335938c6.046875.082031 11.011718-4.753906 11.09375-10.800781.078125-6.046875-4.753906-11.015625-10.800782-11.09375-.097656-.003906-.195312-.003906-.296874 0h-65.324219c-2.90625.007812-5.566407-1.625-6.875-4.21875l-32.601563-63.960938c-1.875-3.671875-5.652344-5.984375-9.777344-5.976562zm0 0"/><path d="m180.777344 302.546875h-18.355469c-2.761719 0-5-2.238281-5-5v-31.894531c0-2.761719 2.238281-5 5-5h18.355469c11.566406-.113282 21.039062 9.171875 21.152344 20.742187.109374 11.566407-9.175782 21.035157-20.742188 21.152344-.140625 0-.273438 0-.410156 0zm-13.355469-10h13.355469c6.046875.082031 11.011718-4.753906 11.09375-10.800781.078125-6.042969-4.753906-11.011719-10.800782-11.09375-.097656 0-.195312 0-.296874 0h-13.351563zm0 0"/><path d="m110.859375 329.078125h-80c-2.605469 0-4.773437-2-4.984375-4.597656l-8-101.601563c-1.617188-22.285156 5.511719-44.324218 19.871094-61.445312.945312-1.132813 2.339844-1.789063 3.816406-1.796875 1.464844.03125 2.851562.671875 3.832031 1.761719.097657.121093.222657.226562.367188.292968l41.136719 18.660156c.832031.375 1.808593.15625 2.40625-.53125l9.359374-10.824218c1.804688-2.085938 4.960938-2.316406 7.050782-.511719.574218.496094 1.027344 1.117187 1.324218 1.816406 9.542969 22.367188 13.839844 46.621094 12.558594 70.910157l-1.28125 23.664062c-.148437 2.757812-2.503906 4.871094-5.261718 4.722656-1.453126-.078125-2.800782-.785156-3.691407-1.9375-.296875-.386718-.5625-.800781-.785156-1.234375l-32.601563-63.957031c-2.789062-5.367188-9.398437-7.457031-14.761718-4.667969-5.304688 2.753907-7.417969 9.257813-4.746094 14.609375l32.601562 63.96875c4.496094 8.863282 13.160157 14.863282 23.039063 15.957032 2.632813.296874 4.578125 2.59375 4.4375 5.238281l-.679687 12.578125v13.921875c0 2.761719-2.234376 5.003906-4.996094 5.003906-.003906 0-.007813 0-.011719 0zm-75.386719-10h70.386719v-9.058594c0-.089843 0-.179687 0-.269531l.449219-8.277344c-11.324219-2.65625-20.898438-10.179687-26.160156-20.554687l-32.59375-63.964844c-5.191407-10.339844-1.019532-22.929687 9.316406-28.121094 10.253906-5.152343 22.746094-1.09375 28.011718 9.097657l24.4375 47.949218.28125-5.199218c1.058594-20.027344-1.929687-40.058594-8.78125-58.90625l-3.957031 4.582031c-3.507812 4.027343-9.238281 5.285156-14.109375 3.097656l-40.0625-18.171875c-10.894531 14.613281-16.167968 32.660156-14.851562 50.839844zm82-57.199219v.019532zm0 0"/><path d="m193.132812 465.207031h-45.472656c-2.761718 0-5-2.238281-5-5v-70.832031c0-5.082031-4.121094-9.203125-9.203125-9.203125h-74.550781c-18.246094-.019531-33.03125-14.808594-33.054688-33.050781v-23.042969c0-2.761719 2.238282-5 5-5h80c.371094 0 .742188.042969 1.105469.125l47.925781 10.839844c22.417969 4.96875 38.34375 24.894531 38.242188 47.859375v82.304687c0 2.757813-2.234375 4.996094-4.992188 5zm-40.472656-10h35.472656v-77.304687c.078126-18.285156-12.601562-34.152344-30.449218-38.105469l-47.382813-10.71875h-74.449219v18.039063c.011719 12.726562 10.324219 23.042968 23.054688 23.054687h74.554688c10.601562.011719 19.191406 8.601563 19.203124 19.203125zm0 0"/><path d="m226.625 511.972656h-67.449219c-9.746093-.003906-17.644531-7.910156-17.636719-17.65625 0-.476562.019532-.953125.058594-1.421875l1.835938-22.484375c.226562-2.75 2.636718-4.800781 5.390625-4.574218.234375.019531.46875.054687.699219.105468l14.871093 3.378906 20.800781-6.933593c1.351563-.453125 2.832032-.308594 4.070313.398437l20.417969 11.707032c3.996094 2.292968 8.519531 3.496093 13.125 3.496093 8.429687.011719 15.261718 6.84375 15.273437 15.273438v7.253906c-.007812 6.324219-5.132812 11.453125-11.457031 11.457031zm-73.703125-35-1.367187 16.734375c-.34375 4.207031 2.792968 7.898438 6.996093 8.238281.210938.019532.417969.027344.625.027344h67.449219c.800781 0 1.453125-.648437 1.453125-1.453125v-7.253906c-.003906-2.910156-2.363281-5.269531-5.273437-5.273437-6.347657 0-12.585938-1.664063-18.097657-4.820313l-18.472656-10.597656-20 6.671875c-.867187.289062-1.796875.332031-2.691406.128906zm0 0"/><path d="m164.644531 479.507812c-.375 0-.746093-.039062-1.109375-.125l-16.234375-3.691406c-2.273437-.515625-3.890625-2.539062-3.890625-4.871094v-10.613281c0-2.761719 2.238282-5 5-5h38.367188c2.761718 0 5 2.238281 5 5v6.921875c0 2.152344-1.375 4.0625-3.417969 4.746094l-22.136719 7.375c-.507812.171875-1.042968.257812-1.578125.257812zm-11.234375-12.679687 10.976563 2.492187 12.347656-4.113281h-23.324219zm33.367188.300781"/><path d="m472.289062 511.972656h-109.632812c-7.515625-.007812-13.609375-6.097656-13.617188-13.617187v-114.570313c.007813-7.515625 6.101563-13.609375 13.617188-13.617187h109.632812c7.515626.007812 13.609376 6.101562 13.617188 13.617187v114.570313c-.007812 7.519531-6.101562 13.609375-13.617188 13.617187zm-109.632812-131.800781c-1.996094.003906-3.613281 1.621094-3.617188 3.617187v114.570313c.003907 1.996094 1.621094 3.613281 3.617188 3.613281h109.632812c1.996094 0 3.613282-1.621094 3.617188-3.617187v-114.570313c-.003906-1.996094-1.621094-3.613281-3.617188-3.617187zm0 0"/><path d="m123.738281 511.972656h-109.636719c-7.515624-.007812-13.605468-6.097656-13.613281-13.617187v-114.570313c.007813-7.515625 6.097657-13.609375 13.613281-13.617187h109.636719c7.515625.007812 13.605469 6.101562 13.613281 13.617187v114.570313c-.007812 7.519531-6.097656 13.609375-13.613281 13.617187zm-109.636719-131.800781c-1.996093.003906-3.613281 1.621094-3.613281 3.617187v114.570313c.003907 1.996094 1.617188 3.613281 3.613281 3.613281h109.636719c1.996094 0 3.613281-1.621094 3.613281-3.617187v-114.570313c-.003906-1.996094-1.617187-3.609375-3.613281-3.613281zm0 0"/><path d="m334.132812 329.078125h-180.976562c-10.085938 0-18.265625-8.175781-18.265625-18.265625 0-10.085938 8.179687-18.265625 18.265625-18.265625h180.976562c10.089844 0 18.269532 8.179687 18.269532 18.265625 0 10.089844-8.179688 18.265625-18.269532 18.265625zm-180.976562-26.53125c-4.566406 0-8.265625 3.703125-8.265625 8.265625 0 4.566406 3.703125 8.265625 8.265625 8.265625h180.976562c4.566407 0 8.269532-3.699219 8.269532-8.265625 0-4.5625-3.703125-8.265625-8.269532-8.265625zm0 0"/><path d="m256.910156 465.207031h-26.53125c-2.761718 0-5-2.238281-5-5v-136.128906c0-2.761719 2.238282-5 5-5h26.535156c2.761719 0 5 2.238281 5 5v136.128906c0 2.761719-2.238281 5-5 5 0 0 0 0-.003906 0zm-21.535156-10h16.535156v-126.128906h-16.535156zm0 0"/><path d="m259.769531 511.972656h-33.144531c-2.761719 0-5-2.238281-5-5 0-2.761718 2.238281-5 5-5 .800781 0 1.453125-.648437 1.453125-1.453125v-7.253906c-.003906-2.910156-2.363281-5.269531-5.273437-5.273437-5.125 0-10.191407-1.089844-14.863282-3.199219-1.796875-.804688-2.957031-2.589844-2.957031-4.5625v-9.398438c.011719-8.628906 7-15.617187 15.628906-15.628906h46.0625c8.625.011719 15.617188 7.003906 15.628907 15.628906v9c0 1.914063-1.09375 3.660157-2.8125 4.496094-4.960938 2.402344-10.394532 3.65625-15.902344 3.664063-2.914063 0-5.269532 2.359374-5.273438 5.269531v7.257812c0 .800781.648438 1.453125 1.453125 1.453125 2.761719 0 5 2.238282 5 5 0 2.761719-2.238281 5-5 5zm-21.785156-10h10.421875c-.0625-.480468-.089844-.964844-.089844-1.453125v-7.253906c.007813-8.433594 6.839844-15.265625 15.273438-15.273437 2.964844-.003907 5.914062-.503907 8.714844-1.484376v-5.671874c-.003907-3.105469-2.523438-5.625-5.628907-5.628907h-46.0625c-3.105469.003907-5.625 2.519531-5.628906 5.628907v5.957031c2.53125.796875 5.167969 1.203125 7.820313 1.199219 8.433593.011718 15.265624 6.84375 15.273437 15.273437v7.253906c0 .488281-.03125.972657-.09375 1.453125zm39.320313-22.136718"/><path d="m179.417969 72.8125c-.328125-.003906-.65625-.035156-.980469-.097656-.320312-.0625-.636719-.160156-.9375-.285156-.300781-.121094-.589844-.277344-.863281-.457032-.273438-.179687-.527344-.390625-.757813-.621094-1.945312-1.960937-1.945312-5.121093 0-7.082031 1.996094-1.851562 5.082032-1.851562 7.078125 0 .929688.949219 1.453125 2.21875 1.460938 3.542969-.011719 2.757812-2.242188 4.988281-5 5zm0 0"/><path d="m199.296875 72.8125c-1.324219-.007812-2.59375-.53125-3.539063-1.460938-.222656-.238281-.429687-.492187-.621093-.757812-.179688-.273438-.335938-.558594-.457031-.859375-.125-.304687-.21875-.621094-.28125-.941406-.136719-.648438-.136719-1.3125 0-1.960938.0625-.320312.15625-.636719.28125-.9375.121093-.304687.277343-.589843.457031-.863281.191406-.265625.398437-.519531.621093-.761719 1.996094-1.851562 5.085938-1.851562 7.082032 0 .222656.242188.429687.496094.617187.761719.179688.273438.335938.558594.460938.863281.125.300781.214843.617188.28125.9375.132812.648438.132812 1.3125 0 1.960938-.121094.640625-.375 1.253906-.742188 1.796875-.1875.265625-.394531.519531-.617187.761718-.945313.925782-2.214844 1.453126-3.542969 1.460938zm0 0"/><path d="m219.179688 72.8125c-.328126-.003906-.65625-.039062-.980469-.097656-.644531-.125-1.257813-.378906-1.800781-.742188-.273438-.183594-.527344-.394531-.761719-.621094-.226563-.238281-.4375-.492187-.621094-.761718-.363281-.542969-.617187-1.15625-.738281-1.796875-.132813-.648438-.132813-1.3125 0-1.960938.066406-.320312.160156-.636719.277344-.9375.128906-.304687.28125-.589843.460937-.863281.191406-.265625.398437-.519531.621094-.761719.234375-.226562.488281-.433593.761719-.617187.542968-.367188 1.15625-.617188 1.800781-.742188.644531-.140625 1.3125-.140625 1.960937 0 .320313.066406.632813.160156.9375.28125.300782.125.589844.28125.859375.460938.550781.359375 1.019531.828125 1.382813 1.375.171875.277344.324218.566406.457031.863281.382813.917969.480469 1.925781.28125 2.898437-.0625.320313-.15625.636719-.28125.941407-.132813.296875-.285156.585937-.457031.859375-.1875.269531-.394532.527344-.625.761718-.238282.222657-.492188.433594-.757813.621094-.277343.179688-.574219.335938-.878906.457032-.296875.125-.605469.21875-.917969.285156-.324218.058594-.652344.09375-.980468.097656zm0 0"/><path d="m239.058594 72.8125c-1.324219-.003906-2.597656-.527344-3.539063-1.460938-.226562-.238281-.429687-.492187-.621093-.757812-.183594-.269531-.335938-.558594-.460938-.859375-.121094-.304687-.21875-.621094-.277344-.941406-.066406-.324219-.097656-.652344-.105468-.980469.011718-1.324219.535156-2.59375 1.460937-3.542969.238281-.226562.492187-.433593.761719-.617187.542968-.367188 1.15625-.617188 1.800781-.742188 1.636719-.324218 3.332031.183594 4.519531 1.359375.925782.949219 1.449219 2.21875 1.457032 3.542969-.003907.328125-.035157.65625-.101563.980469-.058594.320312-.15625.636719-.277344.941406-.136719.296875-.289062.582031-.460937.859375-.191406.265625-.394532.519531-.621094.757812-.238281.226563-.492188.433594-.757812.625-.277344.183594-.574219.335938-.882813.457032-.292969.125-.601563.21875-.917969.28125-.324218.0625-.648437.09375-.976562.097656zm0 0"/><path d="m306.980469 72.8125c-.328125-.003906-.65625-.039062-.980469-.097656-.320312-.066406-.636719-.160156-.941406-.285156-.300782-.121094-.589844-.277344-.863282-.457032-.269531-.183594-.523437-.394531-.757812-.621094-1.945312-1.960937-1.945312-5.121093 0-7.082031.234375-.226562.488281-.433593.757812-.617187.277344-.171875.566407-.328125.859376-.460938.304687-.121094.621093-.214844.945312-.28125 1.636719-.328125 3.332031.183594 4.519531 1.359375.222657.242188.429688.492188.617188.761719.175781.277344.328125.5625.460937.863281.121094.300781.214844.617188.28125.9375.0625.324219.097656.652344.101563.980469-.007813 1.324219-.53125 2.59375-1.460938 3.539062-.238281.226563-.492187.433594-.757812.625-.277344.183594-.570313.335938-.882813.457032-.292968.125-.601562.21875-.917968.28125-.324219.0625-.652344.09375-.980469.097656zm0 0"/><path d="m287.097656 72.8125c-.328125-.003906-.65625-.039062-.980468-.097656-.320313-.066406-.632813-.160156-.9375-.285156-.300782-.121094-.589844-.277344-.859376-.457032-.273437-.183594-.527343-.394531-.765624-.621094-.226563-.238281-.433594-.492187-.617188-.761718-.363281-.542969-.617188-1.15625-.742188-1.796875-.128906-.648438-.128906-1.3125 0-1.960938.0625-.320312.160157-.636719.285157-.9375.121093-.304687.277343-.589843.457031-.863281.183594-.273438.390625-.527344.617188-.761719.238281-.226562.492187-.433593.765624-.617187.269532-.179688.558594-.335938.859376-.460938.304687-.121094.617187-.214844.9375-.28125.648437-.140625 1.316406-.140625 1.960937 0 .320313.066406.636719.160156.941406.28125.300781.125.585938.28125.859375.460938.546875.359375 1.019532.828125 1.378906 1.375.171876.277344.328126.566406.457032.863281.125.304687.222656.617187.285156.941406.128906.644531.128906 1.3125 0 1.957031-.066406.320313-.160156.636719-.285156.941407-.128906.296875-.285156.585937-.457032.859375-.183593.269531-.394531.527344-.621093.761718-.238281.222657-.492188.433594-.761719.621094-.269531.179688-.558594.335938-.859375.457032-.609375.25-1.261719.378906-1.917969.382812zm0 0"/><path d="m151.34375 134.496094c-4.894531-.03125-8.832031-4.023438-8.804688-8.917969.007813-1.265625.289063-2.515625.820313-3.664063l10.171875-21.875c-18.355469-31.3125-7.855469-71.582031 23.460938-89.941406 24.804687-14.542968 56.1875-11.273437 77.460937 8.074219 26.847656 24.433594 28.800781 66.003906 4.371094 92.847656-20.910157 22.972657-55.046875 28.171875-81.847657 12.464844l-21.871093 10.171875c-1.179688.550781-2.460938.835938-3.761719.839844zm58.898438-123.355469c-30.726563-.074219-55.695313 24.769531-55.773438 55.496094-.023438 10.160156 2.734375 20.132812 7.972656 28.835937 1.496094 2.507813 1.644532 5.59375.402344 8.234375l-9.089844 19.542969 19.542969-9.09375c2.679687-1.234375 5.796875-1.058594 8.324219.464844 26.402344 15.8125 60.625 7.230468 76.441406-19.171875 13.644531-22.785157 9.316406-52.035157-10.347656-69.890625-10.253906-9.316406-23.617188-14.457032-37.472656-14.417969zm0 0"/><path d="m335.046875 134.496094c-1.296875-.003906-2.582031-.289063-3.757813-.839844l-21.871093-10.171875c-21.441407 12.476563-48.0625 11.902344-68.941407-1.496094-2.320312-1.496093-2.984374-4.59375-1.488281-6.910156.382813-.597656.890625-1.101563 1.488281-1.488281 3.300782-2.140625 6.367188-4.621094 9.148438-7.402344 21.761719-21.761719 21.761719-57.042969 0-78.804688-.621094-.625-1.261719-1.230468-1.914062-1.824218-2.25-2.046875-4.667969-3.902344-7.226563-5.550782-2.320313-1.496093-2.988281-4.59375-1.488281-6.910156.382812-.597656.890625-1.101562 1.488281-1.488281 30.472656-19.710937 71.160156-10.984375 90.871094 19.488281 13.488281 20.855469 14.066406 47.527344 1.503906 68.945313l10.171875 21.875c2.054688 4.4375.121094 9.707031-4.320312 11.761719-1.148438.53125-2.398438.8125-3.664063.820312zm-25.679687-21.164063c1.28125 0 2.546874.277344 3.707031.816407l19.542969 9.09375-9.089844-19.546876c-1.242188-2.640624-1.089844-5.726562.410156-8.230468 13.414062-22.558594 9.371094-51.402344-9.726562-69.402344-16.761719-15.386719-41.121094-19.199219-61.785157-9.671875.691407.574219 1.363281 1.164063 2.019531 1.761719 26.851563 24.425781 28.820313 65.992187 4.394532 92.84375-.695313.765625-1.414063 1.515625-2.144532 2.25-1.375 1.375-2.808593 2.683594-4.296874 3.933594 16.800781 7.855468 36.398437 6.890624 52.351562-2.570313 1.398438-.835937 2.996094-1.273437 4.621094-1.269531zm0 0"/></g></svg>