<?xml version="1.0" encoding="utf-8"?>
<!-- Generator: Adobe Illustrator 21.0.0, SVG Export Plug-In . SVG Version: 6.00 Build 0)  -->
<svg version="1.1" id="Layer_1" xmlns="http://www.w3.org/2000/svg" xmlns:xlink="http://www.w3.org/1999/xlink" x="0px" y="0px"
	 viewBox="0 0 673.5 238.8" style="enable-background:new 0 0 673.5 238.8;" xml:space="preserve">
<style type="text/css">
	.st0{fill:#001A71;}
	.st1{fill:url(#SVGID_1_);}
	.st2{fill:url(#SVGID_2_);}
	.st3{fill:url(#SVGID_3_);}
	.st4{fill:url(#SVGID_4_);}
	.st5{fill:url(#SVGID_5_);}
	.st6{fill:url(#SVGID_6_);}
	.st7{fill:url(#SVGID_7_);}
	.st8{clip-path:url(#SVGID_9_);fill:#001A71;}
	.st9{fill:url(#SVGID_10_);}
	.st10{fill:url(#SVGID_11_);}
</style>
<g>
	<g>
		<g>
			<g>
				<rect x="294.6" y="90.5" class="st0" width="28.3" height="62.3"/>
				<path class="st0" d="M282.4,120.4c-4-3-10.1-5-18.1-6.1l-25.8-3.1c-4.4-0.4-7.3-1.1-8.7-1.6c-1.3-0.7-2-1.6-2-2.7
					c0-1.4,0.8-2.3,2.7-3.1c1.7-0.7,4.3-1.1,7.4-1.1c4.4,0,7.8,0.5,10.2,1.5c2.4,1.1,3.8,2.6,4.2,4.5h32.9
					c-0.7-6.8-4.7-11.8-12.1-15c-7.4-3.1-18.7-4.7-33.8-4.7c-14.6,0-25.4,1.6-32.1,4.7c-6.7,3.2-10.1,8.4-10.1,15.3
					c0,5.3,2.3,9.5,6.7,12.6c4.4,3.1,11,5.1,19.7,6.1l21.1,2.2c3.5,0.4,6,0.9,7.7,1.8c1.6,0.8,2.4,1.9,2.4,3.2
					c0,1.5-0.9,2.6-2.8,3.2c-1.9,0.8-4.7,1.2-8.6,1.2c-3.8,0-6.7-0.5-9-1.4c-2.1-0.9-3.4-2.3-3.6-3.9h-34.4
					c0.1,6.8,3.9,11.9,11.1,15.5c7.3,3.5,17.7,5.4,31.4,5.4c17.1,0,29.7-1.9,37.6-5.4c8.1-3.6,12-9.2,12-16.9
					C288.4,127.6,286.3,123.4,282.4,120.4z"/>
				<path class="st0" d="M419.2,138.4c0-0.8,0-1.5-0.1-2c-0.1-4.3-0.9-7.3-2.3-9.1c-1.2-1.6-3.5-3.1-6.7-4.2
					c3.8-1.2,6.7-3.2,8.9-6.1c2-2.8,3.1-6.1,3.1-9.7c0-3-0.7-5.7-2.2-8c-1.3-2.4-3.5-4.2-6.2-5.5c-2.2-1.2-9.7-3.2-17.5-3.1
					l-62.6-0.1v62.3h28.7v-18.9h17c3.5,0,6.1,0.4,7.6,1.4c1.5,0.9,2.4,2.6,2.7,4.9c0.1,1.2,0.3,2.8,0.4,5.1c0.1,3.8,0.5,6.4,1.6,7.6
					h31.6v-0.9C421,151.1,419.6,146.5,419.2,138.4z M388.1,116.2c-1.8,0.8-4.9,1.2-9.2,1.2h-16.6l0.2-10.8c0,0-0.1,0-0.1-0.1
					c0.1,0,0.2,0,0.4-0.1c-0.1,0-0.2,0.1-0.2,0.1l15.8-0.3c5,0,8.4,0.4,10,1.2c1.8,0.8,2.6,2.2,2.6,4.2
					C390.8,113.8,389.8,115.3,388.1,116.2z"/>
				<path class="st0" d="M646.4,120.4c-4-3-10-5-18-6.1l-25.6-3.1c-4.4-0.4-7.2-1.1-8.7-1.6c-1.3-0.7-2-1.6-2-2.7
					c0-1.4,0.8-2.3,2.7-3.1c1.7-0.7,4.3-1.1,7.5-1.1c4.3,0,7.6,0.5,10,1.5c2.4,1.1,3.7,2.6,4.1,4.5h32.7c-0.7-6.8-4.5-11.8-12-15
					c-7.3-3.1-18.5-4.7-33.6-4.7c-14.5,0-25.2,1.6-31.9,4.7c-6.7,3.2-10,8.4-10,15.3c0,5.3,2.3,9.5,6.7,12.6
					c4.4,3.1,10.9,5.1,19.6,6.1l20.9,2.2c3.5,0.4,6,0.9,7.6,1.8s2.5,1.9,2.5,3.2c0,1.5-1.1,2.6-2.9,3.2c-1.9,0.8-4.7,1.2-8.4,1.2
					c-3.9,0-6.8-0.5-9.1-1.4c-2.1-0.9-3.3-2.3-3.6-3.9h-34c0,6.8,3.7,11.9,10.9,15.5c7.2,3.5,17.6,5.4,31.2,5.4
					c16.9,0,29.5-1.9,37.3-5.4c8-3.6,11.9-9.2,11.9-16.9C652.3,127.6,650.3,123.4,646.4,120.4z"/>
				<path class="st0" d="M525.7,121.1c0,6.2-1.1,10.5-3.2,13c-2.1,2.4-6,3.7-11.5,3.7c-5.4,0-9.2-1.2-11.4-3.7
					c-2.3-2.4-3.4-6.8-3.4-13V90.5h-28.3v32.7c0,10.8,3.5,18.8,10.5,23.8c7,5,17.8,7.6,32.6,7.6c15,0,25.9-2.4,32.7-7.6
					c7-5,10.3-13,10.3-23.8V90.5h-28.3V121.1z"/>
				<rect x="428.6" y="90.5" class="st0" width="28.4" height="62.3"/>
			</g>
			<g>
				<linearGradient id="SVGID_1_" gradientUnits="userSpaceOnUse" x1="211.8788" y1="151.2354" x2="522.6021" y2="-30.0775">
					<stop  offset="0" style="stop-color:#001A71"/>
					<stop  offset="0.2476" style="stop-color:#112E7E"/>
					<stop  offset="0.5403" style="stop-color:#2A4A92"/>
					<stop  offset="1" style="stop-color:#2E3871"/>
				</linearGradient>
				<path class="st1" d="M294.6,99c9.7-0.3,19.1-0.3,28.3-0.1v-8.3h-28.3V99z"/>
				<linearGradient id="SVGID_2_" gradientUnits="userSpaceOnUse" x1="257.0086" y1="235.6773" x2="566.361" y2="55.1643">
					<stop  offset="0" style="stop-color:#001A71"/>
					<stop  offset="0.2476" style="stop-color:#112E7E"/>
					<stop  offset="0.5403" style="stop-color:#2A4A92"/>
					<stop  offset="1" style="stop-color:#2E3871"/>
				</linearGradient>
				<path class="st2" d="M467.9,113.8c9.7,1.4,19.1,2.8,28.3,4.4V90.5h-28.3V113.8z"/>
				<linearGradient id="SVGID_3_" gradientUnits="userSpaceOnUse" x1="274.7466" y1="264.4864" x2="583.6352" y2="84.2441">
					<stop  offset="0" style="stop-color:#001A71"/>
					<stop  offset="0.2476" style="stop-color:#112E7E"/>
					<stop  offset="0.5403" style="stop-color:#2A4A92"/>
					<stop  offset="1" style="stop-color:#2E3871"/>
				</linearGradient>
				<path class="st3" d="M525.7,121.1c0,0.8,0,1.6-0.1,2.4c9.7,1.9,19.1,3.9,27.9,5.9c0.3-1.9,0.4-4,0.4-6.1V90.5h-28.3V121.1z"/>
				<linearGradient id="SVGID_4_" gradientUnits="userSpaceOnUse" x1="295.0453" y1="303.0523" x2="603.9785" y2="122.7838">
					<stop  offset="0" style="stop-color:#001A71"/>
					<stop  offset="0.2476" style="stop-color:#112E7E"/>
					<stop  offset="0.5403" style="stop-color:#2A4A92"/>
					<stop  offset="1" style="stop-color:#2E3871"/>
				</linearGradient>
				<path class="st4" d="M646.4,120.4c-4-3-10-5-18-6.1l-25.6-3.1c-4.4-0.4-7.2-1.1-8.7-1.6c-1.3-0.7-2-1.6-2-2.7
					c0-1.4,0.8-2.3,2.7-3.1c1.7-0.7,4.3-1.1,7.5-1.1c4.3,0,7.6,0.5,10,1.5c2.4,1.1,3.7,2.6,4.1,4.5h32.7c-0.7-6.8-4.5-11.8-12-15
					c-7.3-3.1-18.5-4.7-33.6-4.7c-14.5,0-25.2,1.6-31.9,4.7c-6.7,3.2-10,8.4-10,15.3c0,5.3,2.3,9.5,6.7,12.6
					c4.4,3.1,10.9,5.1,19.6,6.1l20.9,2.2c3.5,0.4,6,0.9,7.6,1.8c1.6,0.8,2.5,1.9,2.5,3.2c0,1.5-1.1,2.6-2.9,3.2
					c-1.9,0.8-4.7,1.2-8.4,1.2c-3.9,0-6.8-0.5-9.1-1.4c-2.1-0.9-3.3-2.3-3.6-3.9h-25.4c22.3,5.9,41,12.4,55.3,19.6
					c6.3-0.9,11.5-2.3,15.5-4.1c8-3.6,11.9-9.2,11.9-16.9C652.3,127.6,650.3,123.4,646.4,120.4z"/>
				<linearGradient id="SVGID_5_" gradientUnits="userSpaceOnUse" x1="196.9258" y1="124.1991" x2="508.4101" y2="-57.5579">
					<stop  offset="0" style="stop-color:#001A71"/>
					<stop  offset="0.2476" style="stop-color:#112E7E"/>
					<stop  offset="0.5403" style="stop-color:#2A4A92"/>
					<stop  offset="1" style="stop-color:#2E3871"/>
				</linearGradient>
				<path class="st5" d="M273,93.6c-7.4-3.1-18.7-4.7-33.8-4.7c-14.6,0-25.4,1.6-32.1,4.7c-6.7,3.2-10.1,8.4-10.1,15.3
					c0,0.5,0,1.1,0.1,1.6c10.5-2.2,21-4,31.5-5.6c0.4-0.4,1-0.8,1.9-1.2c1.7-0.7,4.3-1.1,7.4-1.1c2,0,3.7,0.1,5.2,0.3
					c12.9-1.6,25.8-2.7,38.3-3.4C279.4,97.2,276.6,95.2,273,93.6z"/>
				<linearGradient id="SVGID_6_" gradientUnits="userSpaceOnUse" x1="230.2007" y1="184.9816" x2="543.4884" y2="2.1723">
					<stop  offset="0" style="stop-color:#001A71"/>
					<stop  offset="0.2476" style="stop-color:#112E7E"/>
					<stop  offset="0.5403" style="stop-color:#2A4A92"/>
					<stop  offset="1" style="stop-color:#2E3871"/>
				</linearGradient>
				<path class="st6" d="M413.7,93.8c-2.2-1.2-10-2.8-13.9-3.2c-2.3-0.4-62.9,0.1-66.2,0l0,8.7c60.8,0.5,72.1,5.1,88.5,8
					c0-2.9-0.7-5.6-2.2-7.9C418.5,96.9,416.4,95.1,413.7,93.8z"/>
				<linearGradient id="SVGID_7_" gradientUnits="userSpaceOnUse" x1="245.48" y1="216.4185" x2="556.9629" y2="34.6624">
					<stop  offset="0" style="stop-color:#001A71"/>
					<stop  offset="0.2476" style="stop-color:#112E7E"/>
					<stop  offset="0.5403" style="stop-color:#2A4A92"/>
					<stop  offset="1" style="stop-color:#2E3871"/>
				</linearGradient>
				<path class="st7" d="M428.6,108.5c9.6,1.1,19.1,2.3,28.4,3.6V90.5h-28.4V108.5z"/>
			</g>
			<g>
				<defs>
					<rect id="SVGID_8_" x="428.6" y="90.5" width="28.4" height="62.3"/>
				</defs>
				<clipPath id="SVGID_9_">
					<use xlink:href="#SVGID_8_"  style="overflow:visible;"/>
				</clipPath>
				<rect x="294.4" y="90.5" class="st8" width="27.6" height="62.3"/>
				<path class="st8" d="M281.5,120.4c-3.9-3-9.8-5-17.7-6.1l-25.1-3.1c-4.3-0.4-7.1-1.1-8.5-1.6c-1.3-0.7-2-1.6-2-2.7
					c0-1.4,0.8-2.3,2.6-3.1c1.7-0.7,4.2-1.1,7.2-1.1c4.3,0,7.6,0.5,9.9,1.5c2.4,1.1,3.7,2.6,4.1,4.5h32.1c-0.7-6.8-4.6-11.8-11.8-15
					c-7.2-3.1-18.2-4.7-33-4.7c-14.3,0-24.7,1.6-31.3,4.7c-6.5,3.2-9.8,8.4-9.8,15.3c0,5.3,2.2,9.5,6.5,12.6
					c4.3,3.1,10.7,5.1,19.2,6.1l20.5,2.2c3.4,0.4,5.9,0.9,7.5,1.8c1.6,0.8,2.4,1.9,2.4,3.2c0,1.5-0.9,2.6-2.7,3.2
					c-1.8,0.8-4.6,1.2-8.4,1.2c-3.7,0-6.5-0.5-8.8-1.4c-2.1-0.9-3.3-2.3-3.5-3.9h-33.5c0.1,6.8,3.8,11.9,10.9,15.5
					c7.1,3.5,17.3,5.4,30.6,5.4c16.6,0,28.9-1.9,36.6-5.4c7.9-3.6,11.6-9.2,11.6-16.9C287.2,127.6,285.3,123.4,281.5,120.4z"/>
				<path class="st8" d="M415.7,138.4c0-0.8,0-1.5-0.1-2c-0.1-4.3-0.9-7.3-2.2-9.1c-1.2-1.6-3.4-3.1-6.5-4.2
					c3.7-1.2,6.5-3.2,8.6-6.1c2-2.8,3-6.1,3-9.7c0-3-0.7-5.7-2.1-8c-1.3-2.4-3.4-4.2-6-5.5c-2.1-1.2-9.4-3.2-17-3.1l-60.7-0.1v62.3
					h27.9v-18.9H377c3.4,0,5.9,0.4,7.3,1.4c1.4,0.9,2.4,2.6,2.6,4.9c0.1,1.2,0.3,2.8,0.4,5.1c0.1,3.8,0.5,6.4,1.6,7.6h30.6v-0.9
					C417.4,151.1,416.1,146.5,415.7,138.4z M385.5,116.2c-1.7,0.8-4.7,1.2-8.9,1.2h-16.1l0.1-10.8c0,0-0.1,0-0.1-0.1
					c0.1,0,0.2,0,0.3-0.1c-0.1,0-0.2,0.1-0.2,0.1l15.3-0.3c4.8,0,8.1,0.4,9.7,1.2c1.7,0.8,2.5,2.2,2.5,4.2
					C388.1,113.8,387.2,115.3,385.5,116.2z"/>
				<path class="st8" d="M646.5,120.4c-3.9-3-9.8-5-17.7-6.1l-25.1-3.1c-4.3-0.4-7.1-1.1-8.5-1.6c-1.3-0.7-2-1.6-2-2.7
					c0-1.4,0.8-2.3,2.6-3.1c1.7-0.7,4.2-1.1,7.3-1.1c4.2,0,7.5,0.5,9.8,1.5c2.4,1.1,3.7,2.6,4.1,4.5h32.1c-0.7-6.8-4.4-11.8-11.8-15
					c-7.2-3.1-18.2-4.7-33-4.7c-14.3,0-24.7,1.6-31.3,4.7c-6.5,3.2-9.8,8.4-9.8,15.3c0,5.3,2.2,9.5,6.5,12.6
					c4.3,3.1,10.7,5.1,19.2,6.1l20.5,2.2c3.4,0.4,5.9,0.9,7.5,1.8s2.5,1.9,2.5,3.2c0,1.5-1,2.6-2.9,3.2c-1.8,0.8-4.6,1.2-8.2,1.2
					c-3.8,0-6.7-0.5-8.9-1.4c-2.1-0.9-3.3-2.3-3.5-3.9h-33.4c0,6.8,3.7,11.9,10.7,15.5c7.1,3.5,17.3,5.4,30.6,5.4
					c16.6,0,28.9-1.9,36.6-5.4c7.9-3.6,11.6-9.2,11.6-16.9C652.3,127.6,650.3,123.4,646.5,120.4z"/>
				<path class="st8" d="M525.8,121.1c0,6.2-1,10.5-3.1,13c-2.1,2.4-5.9,3.7-11.3,3.7c-5.2,0-9-1.2-11.1-3.7
					c-2.2-2.4-3.3-6.8-3.3-13V90.5h-27.6v32.7c0,10.8,3.4,18.8,10.2,23.8c6.8,5,17.4,7.6,31.8,7.6c14.7,0,25.3-2.4,31.9-7.6
					c6.8-5,10.1-13,10.1-23.8V90.5h-27.6V121.1z"/>
			</g>
		</g>
		<radialGradient id="SVGID_10_" cx="103.1551" cy="121.8817" r="68.0495" gradientUnits="userSpaceOnUse">
			<stop  offset="0.1122" style="stop-color:#92CEF1"/>
			<stop  offset="0.309" style="stop-color:#71A0CF"/>
			<stop  offset="0.8112" style="stop-color:#2A4A92"/>
			<stop  offset="1" style="stop-color:#2E3871"/>
		</radialGradient>
		<path class="st9" d="M71.2,91.1C110.3,60,187.6,16.7,187.6,16.7s-24.8,20.9-46.1,42.8C129.8,71.6,118.3,87.8,112,97l16.8-4.4
			l-24.2,21.7l-3.8-31.9l-4.3,31.9L71.2,91.1z M134.2,153.9c0,0,20.2-14.7,35.3-28c9.8-8.6,17.9-20.2,16.7-32
			c-1.2-11.3-10.9-12.8-20.3-10.4c-7.9,2-29.1,7.2-29.1,7.2c-3.3,2.9-26.3,29.3-26.3,29.3l31.6,4.6l-31.5,3.9L134.2,153.9z
			 M90.9,128.5l-32.3-3.9l32.3-4.7l-23.5-26c0,0-24.9,19.1-29.4,23.6s-13.5,11.4-17.1,24c-3.8,13.1,3.5,21.8,16.2,19.5
			c11.6-2.1,31-7.6,31-7.6L90.9,128.5z M104.6,134.3l-3.8,31.6l-4.3-31.6L77.6,151l16.8-3.4c0,0-24.8,38.9-75.7,79.5
			c0,0,60.9-34,111-69.9L104.6,134.3z"/>
	</g>
	<radialGradient id="SVGID_11_" cx="103.1551" cy="121.8817" r="68.0495" gradientUnits="userSpaceOnUse">
		<stop  offset="0.1122" style="stop-color:#92CEF1"/>
		<stop  offset="0.309" style="stop-color:#71A0CF"/>
		<stop  offset="0.8112" style="stop-color:#2A4A92"/>
		<stop  offset="1" style="stop-color:#2E3871"/>
	</radialGradient>
	<path class="st10" d="M71.2,91.1C110.3,60,187.6,16.7,187.6,16.7s-24.8,20.9-46.1,42.8C125.8,75.7,116.8,89.3,112,97l16.8-4.4
		l-24.2,21.7l-3.8-31.9l-4.3,31.9L71.2,91.1z M134.2,153.9c0,0,20.2-14.7,35.3-28c9.8-8.6,17.9-20.2,16.7-32
		c-1.2-11.3-10.9-12.8-20.3-10.4c-7.9,2-29.1,7.2-29.1,7.2c-3.3,2.9-26.3,29.3-26.3,29.3l31.6,4.6l-31.5,3.9L134.2,153.9z
		 M90.9,128.5l-32.3-3.9l32.3-4.7l-23.5-26c0,0-24.9,19.1-29.4,23.6s-13.5,11.4-17.1,24c-3.8,13.1,3.5,21.8,16.2,19.5
		c11.6-2.1,31-7.6,31-7.6L90.9,128.5z M104.6,134.3l-3.8,31.6l-4.3-31.6L77.6,151l16.8-3.4c0,0-24.8,38.9-75.7,79.5
		c0,0,60.9-34,111-69.9L104.6,134.3z"/>
</g>
</svg>
