<svg id="Layer_1" data-name="Layer 1" xmlns="http://www.w3.org/2000/svg" xmlns:xlink="http://www.w3.org/1999/xlink" viewBox="0 0 633.61 210.3"><defs><style>.cls-1{fill:none;}.cls-2{fill:#3694d1;}.cls-3{fill:url(#radial-gradient);}.cls-4{clip-path:url(#clip-path);}.cls-5{fill:#001a71;}.cls-6{fill:url(#radial-gradient-8);}</style><radialGradient id="radial-gradient" cx="189.35" cy="105.46" r="396.24" gradientUnits="userSpaceOnUse"><stop offset="0" stop-color="#87cff3" stop-opacity="0.4"/><stop offset="0.27" stop-color="#6098cb" stop-opacity="0.52"/><stop offset="0.55" stop-color="#2a4a92" stop-opacity="0.7"/><stop offset="0.71" stop-color="#3e64a4" stop-opacity="0.64"/><stop offset="0.92" stop-color="#77acd9" stop-opacity="0.48"/><stop offset="1" stop-color="#92cef1" stop-opacity="0.4"/></radialGradient><clipPath id="clip-path" transform="translate(-18.68 -16.73)"><rect class="cls-1" x="428.61" y="90.52" width="28.37" height="62.31"/></clipPath><radialGradient id="radial-gradient-8" cx="103.15" cy="121.88" r="68.05" gradientUnits="userSpaceOnUse"><stop offset="0" stop-color="#fff"/><stop offset="0.21" stop-color="#e7f4fc"/><stop offset="1" stop-color="#92cef1"/></radialGradient></defs><title>Sirius-Primary-Dark</title><rect class="cls-2" x="275.94" y="73.79" width="28.31" height="62.31"/><path class="cls-2" d="M282.44,120.4q-6-4.46-18.13-6.08l-25.79-3.11a37,37,0,0,1-8.73-1.62,3.09,3.09,0,0,1-2-2.7c0-1.35.81-2.3,2.69-3.11a21.36,21.36,0,0,1,7.39-1.08,28.59,28.59,0,0,1,10.21,1.49c2.42,1.08,3.76,2.57,4.16,4.46h32.9q-1-10.14-12.09-15c-7.39-3.11-18.67-4.73-33.84-4.73-14.64,0-25.38,1.62-32.1,4.73S197,102,197,108.9a14.66,14.66,0,0,0,6.72,12.57q6.65,4.66,19.74,6.08l21.08,2.16a24.63,24.63,0,0,1,7.65,1.76q2.42,1.22,2.42,3.24,0,2.23-2.82,3.25c-1.88.81-4.7,1.22-8.59,1.22a26.92,26.92,0,0,1-9-1.35c-2.15-.95-3.36-2.3-3.63-3.92H196.23c.13,6.76,3.89,11.9,11.15,15.54s17.73,5.41,31.43,5.41c17.06,0,29.68-1.89,37.6-5.41s12-9.19,12-16.9A14.71,14.71,0,0,0,282.44,120.4Z" transform="translate(-18.68 -16.73)"/><path class="cls-2" d="M419.2,138.37a8.94,8.94,0,0,0-.14-2c-.14-4.33-.94-7.3-2.29-9.06s-3.51-3.11-6.74-4.19a17.61,17.61,0,0,0,8.9-6.08,16.41,16.41,0,0,0,3.1-9.73,14.44,14.44,0,0,0-2.16-8,13.84,13.84,0,0,0-6.2-5.54c-2.16-1.22-9.66-3.24-17.53-3.11l-62.58-.13v62.31h28.73V133.91h17c3.51,0,6.07.41,7.55,1.35a6.29,6.29,0,0,1,2.7,4.87c.14,1.22.27,2.84.41,5.14.13,3.79.54,6.35,1.62,7.57h31.56v-.95C421,151.08,419.61,146.48,419.2,138.37ZM388.05,116.2c-1.75.81-4.86,1.22-9.17,1.22H362.29l.15-10.81-.12-.07.36-.07-.24.13,15.76-.27c5,0,8.36.4,10,1.22a4.17,4.17,0,0,1,2.56,4.19A4.78,4.78,0,0,1,388.05,116.2Z" transform="translate(-18.68 -16.73)"/><path class="cls-2" d="M646.43,120.4q-6-4.46-18-6.08l-25.61-3.11a36.48,36.48,0,0,1-8.67-1.62,3.09,3.09,0,0,1-2-2.7c0-1.35.8-2.3,2.67-3.11a21.37,21.37,0,0,1,7.47-1.08,27.92,27.92,0,0,1,10,1.49c2.4,1.08,3.73,2.57,4.13,4.46h32.68c-.67-6.76-4.53-11.76-12-15s-18.54-4.73-33.61-4.73c-14.54,0-25.21,1.62-31.87,4.73s-10,8.38-10,15.27a14.69,14.69,0,0,0,6.67,12.57q6.6,4.66,19.61,6.08l20.94,2.16a24.31,24.31,0,0,1,7.6,1.76c1.6.81,2.53,1.89,2.53,3.24s-1.07,2.57-2.93,3.25-4.67,1.22-8.4,1.22a26.85,26.85,0,0,1-9.07-1.35c-2.13-.95-3.33-2.3-3.6-3.92h-34c0,6.76,3.73,11.9,10.94,15.54s17.61,5.41,31.21,5.41c16.94,0,29.47-1.89,37.34-5.41s11.87-9.19,11.87-16.9A14.75,14.75,0,0,0,646.43,120.4Z" transform="translate(-18.68 -16.73)"/><path class="cls-2" d="M525.68,121.07q0,9.33-3.22,13c-2.14,2.43-6,3.65-11.52,3.65s-9.25-1.22-11.39-3.65-3.35-6.76-3.35-13V90.52H467.93v32.71c0,10.81,3.48,18.79,10.45,23.79s17.82,7.57,32.56,7.57c15,0,25.86-2.43,32.7-7.57S554,134,554,123.23V90.52H525.68Z" transform="translate(-18.68 -16.73)"/><rect class="cls-2" x="409.93" y="73.79" width="28.37" height="62.31"/><path class="cls-3" d="M294.62,99c9.68-.3,19.15-.34,28.31-.14V90.52H294.62Z" transform="translate(-18.68 -16.73)"/><path class="cls-3" d="M467.93,113.83q14.53,2.08,28.27,4.35V90.52H467.93Z" transform="translate(-18.68 -16.73)"/><path class="cls-3" d="M525.68,121.07c0,.82,0,1.61-.06,2.36q14.59,2.83,27.93,5.9a44.44,44.44,0,0,0,.4-6.1V90.52H525.68Z" transform="translate(-18.68 -16.73)"/><path class="cls-3" d="M646.43,120.4q-6-4.46-18-6.08l-25.61-3.11a36.47,36.47,0,0,1-8.67-1.62,3.09,3.09,0,0,1-2-2.7c0-1.35.8-2.3,2.67-3.11a21.37,21.37,0,0,1,7.47-1.08,27.93,27.93,0,0,1,10,1.49c2.4,1.08,3.73,2.57,4.13,4.46h32.68c-.67-6.76-4.53-11.76-12-15s-18.54-4.73-33.61-4.73c-14.54,0-25.21,1.62-31.87,4.73s-10,8.38-10,15.27a14.69,14.69,0,0,0,6.67,12.57q6.6,4.66,19.61,6.08l20.94,2.16a24.31,24.31,0,0,1,7.6,1.76c1.6.81,2.53,1.89,2.53,3.24s-1.07,2.57-2.93,3.25-4.67,1.22-8.4,1.22a26.85,26.85,0,0,1-9.07-1.35c-2.13-.95-3.33-2.3-3.6-3.92H569.58c22.28,5.91,41,12.44,55.32,19.6a59.44,59.44,0,0,0,15.53-4.06c8-3.65,11.87-9.19,11.87-16.9A14.75,14.75,0,0,0,646.43,120.4Z" transform="translate(-18.68 -16.73)"/><path class="cls-3" d="M273,93.63c-7.39-3.11-18.67-4.73-33.84-4.73-14.64,0-25.38,1.62-32.1,4.73S197,102,197,108.9c0,.54,0,1.07.08,1.6,10.46-2.16,21-4,31.49-5.56a5.93,5.93,0,0,1,1.87-1.18,21.35,21.35,0,0,1,7.39-1.08,41.15,41.15,0,0,1,5.24.31c12.94-1.57,25.77-2.69,38.32-3.39A22.36,22.36,0,0,0,273,93.63Z" transform="translate(-18.68 -16.73)"/><path class="cls-3" d="M413.67,93.77c-2.16-1.22-10-2.84-13.88-3.24-2.29-.41-62.85.14-66.22,0v8.7c60.78.48,76.34,3.69,88.47,8a14.4,14.4,0,0,0-2.16-7.88A13.84,13.84,0,0,0,413.67,93.77Z" transform="translate(-18.68 -16.73)"/><path class="cls-3" d="M428.61,108.48q14.47,1.7,28.37,3.56V90.52H428.61Z" transform="translate(-18.68 -16.73)"/><g class="cls-4"><rect class="cls-5" x="275.74" y="73.79" width="27.61" height="62.31"/><path class="cls-5" d="M281.47,120.4q-5.89-4.46-17.66-6.08l-25.12-3.11a35.2,35.2,0,0,1-8.5-1.62,3.09,3.09,0,0,1-2-2.7c0-1.35.79-2.3,2.62-3.11a20.32,20.32,0,0,1,7.2-1.08,27.21,27.21,0,0,1,9.94,1.49c2.36,1.08,3.66,2.57,4.06,4.46h32.06q-1-10.14-11.78-15c-7.2-3.11-18.19-4.73-33-4.73-14.26,0-24.73,1.62-31.27,4.73s-9.81,8.38-9.81,15.27a14.77,14.77,0,0,0,6.54,12.57q6.48,4.66,19.23,6.08l20.54,2.16a23.49,23.49,0,0,1,7.46,1.76q2.36,1.22,2.35,3.24,0,2.23-2.75,3.25c-1.83.81-4.58,1.22-8.37,1.22a25.61,25.61,0,0,1-8.77-1.35c-2.09-.95-3.27-2.3-3.53-3.92h-33.5c.13,6.76,3.79,11.9,10.86,15.54s17.27,5.41,30.62,5.41c16.62,0,28.92-1.89,36.64-5.41s11.65-9.19,11.65-16.9A14.85,14.85,0,0,0,281.47,120.4Z" transform="translate(-18.68 -16.73)"/><path class="cls-5" d="M415.72,138.37a9.21,9.21,0,0,0-.13-2c-.13-4.33-.92-7.3-2.22-9.06s-3.4-3.11-6.54-4.19a17.09,17.09,0,0,0,8.63-6.08,16.76,16.76,0,0,0,3-9.73,14.78,14.78,0,0,0-2.09-8,13.58,13.58,0,0,0-6-5.54c-2.09-1.22-9.37-3.24-17-3.11l-60.71-.13v62.31H360.5V133.91H377c3.4,0,5.89.41,7.33,1.35a6.34,6.34,0,0,1,2.62,4.87c.13,1.22.26,2.84.39,5.14.13,3.79.52,6.35,1.57,7.57h30.62v-.95C417.42,151.08,416.11,146.48,415.72,138.37ZM385.5,116.2c-1.7.81-4.71,1.22-8.9,1.22H360.5l.15-10.81-.12-.07.35-.07-.23.13,15.29-.27c4.84,0,8.11.4,9.68,1.22a4.19,4.19,0,0,1,2.49,4.19A4.8,4.8,0,0,1,385.5,116.2Z" transform="translate(-18.68 -16.73)"/><path class="cls-5" d="M646.54,120.4q-5.89-4.46-17.66-6.08l-25.12-3.11a35.2,35.2,0,0,1-8.5-1.62,3.09,3.09,0,0,1-2-2.7c0-1.35.79-2.3,2.62-3.11a20.61,20.61,0,0,1,7.33-1.08,26.92,26.92,0,0,1,9.81,1.49c2.36,1.08,3.66,2.57,4.06,4.46h32.06c-.65-6.76-4.45-11.76-11.78-15s-18.19-4.73-33-4.73c-14.26,0-24.73,1.62-31.27,4.73s-9.81,8.38-9.81,15.27a14.77,14.77,0,0,0,6.54,12.57q6.48,4.66,19.24,6.08l20.54,2.16a23.48,23.48,0,0,1,7.46,1.76c1.57.81,2.49,1.89,2.49,3.24s-1,2.57-2.88,3.25-4.58,1.22-8.24,1.22a25.89,25.89,0,0,1-8.9-1.35c-2.09-.95-3.27-2.3-3.53-3.92H562.66c0,6.76,3.66,11.9,10.73,15.54s17.27,5.41,30.62,5.41c16.62,0,28.92-1.89,36.64-5.41s11.65-9.19,11.65-16.9A14.85,14.85,0,0,0,646.54,120.4Z" transform="translate(-18.68 -16.73)"/><path class="cls-5" d="M525.76,121.07q0,9.33-3.14,13c-2.09,2.43-5.89,3.65-11.25,3.65s-9-1.22-11.12-3.65-3.27-6.76-3.27-13V90.52H469.37v32.71c0,10.81,3.4,18.79,10.21,23.79s17.4,7.57,31.8,7.57c14.66,0,25.25-2.43,31.93-7.57s10.08-13,10.08-23.79V90.52H525.76Z" transform="translate(-18.68 -16.73)"/></g><path class="cls-6" d="M71.22,91.09C110.34,60,187.63,16.73,187.63,16.73s-24.85,20.93-46.06,42.76a224.33,224.33,0,0,0-29.74,37.44l17-4.33-24.17,21.72-3.79-31.87L96.5,114.32Zm63,62.79s20.22-14.73,35.28-28c9.82-8.62,17.88-20.16,16.67-32C185,82.62,175.23,81.19,165.8,83.52l-29.14,7.16C133.41,93.61,110.34,120,110.34,120l31.6,4.64-31.53,3.91ZM90.93,128.54l-32.29-3.91,32.29-4.74-23.53-26S42.47,113,38,117.48s-13.45,11.44-17.09,24c-3.81,13.11,3.51,21.76,16.19,19.49,11.56-2.07,31-7.63,31-7.63Zm13.68,5.72-3.79,31.61L96.5,134.26,77.57,151l16.78-3.44S69.6,186.46,18.68,227c0,0,60.89-34,111-69.89Z" transform="translate(-18.68 -16.73)"/></svg>